<?xml version="1.0" encoding="utf-8" standalone="no"?>
<!DOCTYPE svg PUBLIC "-//W3C//DTD SVG 1.1//EN"
  "http://www.w3.org/Graphics/SVG/1.1/DTD/svg11.dtd">
<svg xmlns:xlink="http://www.w3.org/1999/xlink" width="460.8pt" height="345.6pt" viewBox="0 0 460.8 345.6" xmlns="http://www.w3.org/2000/svg" version="1.1">
 <metadata>
  <rdf:RDF xmlns:dc="http://purl.org/dc/elements/1.1/" xmlns:cc="http://creativecommons.org/ns#" xmlns:rdf="http://www.w3.org/1999/02/22-rdf-syntax-ns#">
   <cc:Work>
    <dc:type rdf:resource="http://purl.org/dc/dcmitype/StillImage"/>
    <dc:date>2022-11-18T19:17:15.323895</dc:date>
    <dc:format>image/svg+xml</dc:format>
    <dc:creator>
     <cc:Agent>
      <dc:title>Matplotlib v3.5.3, https://matplotlib.org/</dc:title>
     </cc:Agent>
    </dc:creator>
   </cc:Work>
  </rdf:RDF>
 </metadata>
 <defs>
  <style type="text/css">*{stroke-linejoin: round; stroke-linecap: butt}</style>
 </defs>
 <g id="figure_1">
  <g id="patch_1">
   <path d="M 0 345.6 
L 460.8 345.6 
L 460.8 0 
L 0 0 
z
" style="fill: #ffffff"/>
  </g>
  <g id="axes_1">
   <g id="patch_2">
    <path d="M 118.70295 224.213348 
L 111.379326 222.490142 
L 113.529025 219.910503 
L 73.153025 186.263836 
L 73.161641 186.253497 
L 113.537641 219.900164 
L 115.68734 217.320525 
z
" clip-path="url(#p45738d8ad1)" style="stroke: #000000; stroke-width: 0.333333; stroke-linejoin: miter"/>
   </g>
   <g id="patch_3">
    <path d="M 113.533333 233.364 
L 106.804 236.728667 
L 106.804 233.370729 
L 86.616 233.370729 
L 86.616 233.357271 
L 106.804 233.357271 
L 106.804 229.999333 
z
" clip-path="url(#p45738d8ad1)" style="stroke: #000000; stroke-width: 0.625; stroke-linejoin: miter"/>
   </g>
   <g id="patch_4">
    <path d="M 73.157333 186.258667 
L 76.522 192.988 
L 73.164063 192.988 
L 73.164063 226.634667 
L 73.150604 226.634667 
L 73.150604 192.988 
L 69.792667 192.988 
z
" clip-path="url(#p45738d8ad1)" style="stroke: #000000; stroke-width: 0.125; stroke-linejoin: miter"/>
   </g>
   <g id="patch_5">
    <path d="M 118.959901 129.790383 
L 115.523075 136.483151 
L 113.537313 133.775293 
L 73.161313 163.38436 
L 73.153354 163.373507 
L 113.529354 133.76444 
L 111.543592 131.056583 
z
" clip-path="url(#p45738d8ad1)" style="stroke: #000000; stroke-width: 0.333333; stroke-linejoin: miter"/>
   </g>
   <g id="patch_6">
    <path d="M 123.453042 133.22835 
L 123.225158 140.748521 
L 120.268592 139.156524 
L 73.163258 226.637857 
L 73.151408 226.631476 
L 120.256742 139.150143 
L 117.300175 137.558145 
z
" clip-path="url(#p45738d8ad1)" style="stroke: #000000; stroke-width: 0.25; stroke-linejoin: miter"/>
   </g>
   <g id="patch_7">
    <path d="M 118.70295 224.213348 
L 111.379326 222.490142 
L 113.529025 219.910503 
L 73.153025 186.263836 
L 73.161641 186.253497 
L 113.537641 219.900164 
L 115.68734 217.320525 
z
" clip-path="url(#p45738d8ad1)" style="stroke: #000000; stroke-width: 0.333333; stroke-linejoin: miter"/>
   </g>
   <g id="patch_8">
    <path d="M 59.698667 240.093333 
L 86.616 240.093333 
L 86.616 226.634667 
L 59.698667 226.634667 
L 59.698667 240.093333 
z
" clip-path="url(#p45738d8ad1)" style="fill: none; stroke: #000000; stroke-width: 1.5; stroke-linejoin: miter"/>
   </g>
   <g id="patch_9">
    <path d="M 73.157333 186.258667 
L 85.053226 174.362774 
L 73.157333 162.466881 
L 61.26144 174.362774 
L 73.157333 186.258667 
z
" clip-path="url(#p45738d8ad1)" style="fill: none; stroke: #000000; stroke-width: 1.25; stroke-linejoin: miter"/>
   </g>
   <g id="patch_10">
    <path d="M 167.368 233.364 
L 160.638667 236.728667 
L 160.638667 233.370729 
L 140.450667 233.370729 
L 140.450667 233.357271 
L 160.638667 233.357271 
L 160.638667 229.999333 
z
" clip-path="url(#p45738d8ad1)" style="stroke: #000000; stroke-width: 1.285714; stroke-linejoin: miter"/>
   </g>
   <g id="patch_11">
    <path d="M 167.368 118.965333 
L 160.638667 122.33 
L 160.638667 118.972063 
L 140.450667 118.972063 
L 140.450667 118.958604 
L 160.638667 118.958604 
L 160.638667 115.600667 
z
" clip-path="url(#p45738d8ad1)" style="stroke: #000000; stroke-width: 0.75; stroke-linejoin: miter"/>
   </g>
   <g id="patch_12">
    <path d="M 126.992 186.258667 
L 130.356667 192.988 
L 126.998729 192.988 
L 126.998729 226.634667 
L 126.985271 226.634667 
L 126.985271 192.988 
L 123.627333 192.988 
z
" clip-path="url(#p45738d8ad1)" style="stroke: #000000; stroke-width: 0.428571; stroke-linejoin: miter"/>
   </g>
   <g id="patch_13">
    <path d="M 126.992 159.341333 
L 123.627333 152.612 
L 126.985271 152.612 
L 126.985271 132.424 
L 126.998729 132.424 
L 126.998729 152.612 
L 130.356667 152.612 
z
" clip-path="url(#p45738d8ad1)" style="stroke: #000000; stroke-width: 0.75; stroke-linejoin: miter"/>
   </g>
   <g id="patch_14">
    <path d="M 172.794568 129.790383 
L 169.357742 136.483151 
L 167.371979 133.775293 
L 126.995979 163.38436 
L 126.988021 163.373507 
L 167.364021 133.76444 
L 165.378258 131.056583 
z
" clip-path="url(#p45738d8ad1)" style="stroke: #000000; stroke-linejoin: miter"/>
   </g>
   <g id="patch_15">
    <path d="M 177.287709 133.22835 
L 177.059825 140.748521 
L 174.103258 139.156524 
L 126.997925 226.637857 
L 126.986075 226.631476 
L 174.091408 139.150143 
L 171.134842 137.558145 
z
" clip-path="url(#p45738d8ad1)" style="stroke: #000000; stroke-width: 1.285714; stroke-linejoin: miter"/>
   </g>
   <g id="patch_16">
    <path d="M 172.537617 224.213348 
L 165.213993 222.490142 
L 167.363692 219.910503 
L 126.987692 186.263836 
L 126.996308 186.253497 
L 167.372308 219.900164 
L 169.522007 217.320525 
z
" clip-path="url(#p45738d8ad1)" style="stroke: #000000; stroke-linejoin: miter"/>
   </g>
   <g id="patch_17">
    <path d="M 126.992 186.258667 
L 130.356667 192.988 
L 126.998729 192.988 
L 126.998729 226.634667 
L 126.985271 226.634667 
L 126.985271 192.988 
L 123.627333 192.988 
z
" clip-path="url(#p45738d8ad1)" style="stroke: #000000; stroke-width: 0.428571; stroke-linejoin: miter"/>
   </g>
   <g id="patch_18">
    <path d="M 178.703561 225.792096 
L 172.499819 221.535514 
L 175.437313 219.908594 
L 126.986113 132.42726 
L 126.997887 132.42074 
L 175.449087 219.902073 
L 178.386581 218.275153 
z
" clip-path="url(#p45738d8ad1)" style="stroke: #000000; stroke-width: 1.5; stroke-linejoin: miter"/>
   </g>
   <g id="patch_19">
    <path d="M 113.533333 240.093333 
L 143.1424 240.093333 
L 143.1424 225.2888 
L 113.533333 225.2888 
L 113.533333 240.093333 
z
" clip-path="url(#p45738d8ad1)" style="fill: none; stroke: #000000; stroke-width: 1.25; stroke-linejoin: miter"/>
   </g>
   <g id="patch_20">
    <path d="M 126.992 186.258667 
L 139.839565 173.411102 
L 126.992 160.563538 
L 114.144435 173.411102 
L 126.992 186.258667 
z
" clip-path="url(#p45738d8ad1)" style="fill: none; stroke: #000000; stroke-width: 1.25; stroke-linejoin: miter"/>
   </g>
   <g id="patch_21">
    <path d="M 126.992 133.769867 
C 130.918208 133.769867 134.684138 132.209968 137.460386 129.433719 
C 140.236634 126.657471 141.796533 122.891541 141.796533 118.965333 
C 141.796533 115.039125 140.236634 111.273196 137.460386 108.496947 
C 134.684138 105.720699 130.918208 104.1608 126.992 104.1608 
C 123.065792 104.1608 119.299862 105.720699 116.523614 108.496947 
C 113.747366 111.273196 112.187467 115.039125 112.187467 118.965333 
C 112.187467 122.891541 113.747366 126.657471 116.523614 129.433719 
C 119.299862 132.209968 123.065792 133.769867 126.992 133.769867 
L 126.992 133.769867 
z
" clip-path="url(#p45738d8ad1)" style="fill: none; stroke: #000000; stroke-width: 1.25; stroke-linejoin: miter"/>
   </g>
   <g id="patch_22">
    <path d="M 221.202667 233.364 
L 214.473333 236.728667 
L 214.473333 233.370729 
L 194.285333 233.370729 
L 194.285333 233.357271 
L 214.473333 233.357271 
L 214.473333 229.999333 
z
" clip-path="url(#p45738d8ad1)" style="stroke: #000000; stroke-width: 1.714286; stroke-linejoin: miter"/>
   </g>
   <g id="patch_23">
    <path d="M 221.202667 118.965333 
L 214.473333 122.33 
L 214.473333 118.972063 
L 194.285333 118.972063 
L 194.285333 118.958604 
L 214.473333 118.958604 
L 214.473333 115.600667 
z
" clip-path="url(#p45738d8ad1)" style="stroke: #000000; stroke-width: 0.6; stroke-linejoin: miter"/>
   </g>
   <g id="patch_24">
    <path d="M 180.826667 186.258667 
L 184.191333 192.988 
L 180.833396 192.988 
L 180.833396 226.634667 
L 180.819937 226.634667 
L 180.819937 192.988 
L 177.462 192.988 
z
" clip-path="url(#p45738d8ad1)" style="stroke: #000000; stroke-width: 0.857143; stroke-linejoin: miter"/>
   </g>
   <g id="patch_25">
    <path d="M 180.826667 159.341333 
L 177.462 152.612 
L 180.819937 152.612 
L 180.819937 132.424 
L 180.833396 132.424 
L 180.833396 152.612 
L 184.191333 152.612 
z
" clip-path="url(#p45738d8ad1)" style="stroke: #000000; stroke-width: 0.6; stroke-linejoin: miter"/>
   </g>
   <g id="patch_26">
    <path d="M 226.629235 129.790383 
L 223.192408 136.483151 
L 221.206646 133.775293 
L 180.830646 163.38436 
L 180.822687 163.373507 
L 221.198687 133.76444 
L 219.212925 131.056583 
z
" clip-path="url(#p45738d8ad1)" style="stroke: #000000; stroke-linejoin: miter"/>
   </g>
   <g id="patch_27">
    <path d="M 231.122376 133.22835 
L 230.894492 140.748521 
L 227.937925 139.156524 
L 180.832592 226.637857 
L 180.820742 226.631476 
L 227.926075 139.150143 
L 224.969508 137.558145 
z
" clip-path="url(#p45738d8ad1)" style="stroke: #000000; stroke-width: 0.428571; stroke-linejoin: miter"/>
   </g>
   <g id="patch_28">
    <path d="M 226.372284 224.213348 
L 219.04866 222.490142 
L 221.198359 219.910503 
L 180.822359 186.263836 
L 180.830975 186.253497 
L 221.206975 219.900164 
L 223.356674 217.320525 
z
" clip-path="url(#p45738d8ad1)" style="stroke: #000000; stroke-linejoin: miter"/>
   </g>
   <g id="patch_29">
    <path d="M 180.826667 186.258667 
L 184.191333 192.988 
L 180.833396 192.988 
L 180.833396 226.634667 
L 180.819937 226.634667 
L 180.819937 192.988 
L 177.462 192.988 
z
" clip-path="url(#p45738d8ad1)" style="stroke: #000000; stroke-width: 0.857143; stroke-linejoin: miter"/>
   </g>
   <g id="patch_30">
    <path d="M 232.538228 225.792096 
L 226.334485 221.535514 
L 229.27198 219.908594 
L 180.82078 132.42726 
L 180.832553 132.42074 
L 229.283753 219.902073 
L 232.221248 218.275153 
z
" clip-path="url(#p45738d8ad1)" style="stroke: #000000; stroke-width: 1.8; stroke-linejoin: miter"/>
   </g>
   <g id="patch_31">
    <path d="M 167.368 240.093333 
L 196.977067 240.093333 
L 196.977067 225.2888 
L 167.368 225.2888 
L 167.368 240.093333 
z
" clip-path="url(#p45738d8ad1)" style="fill: none; stroke: #000000; stroke-width: 1.25; stroke-linejoin: miter"/>
   </g>
   <g id="patch_32">
    <path d="M 180.826667 186.258667 
L 193.674231 173.411102 
L 180.826667 160.563538 
L 167.979102 173.411102 
L 180.826667 186.258667 
z
" clip-path="url(#p45738d8ad1)" style="fill: none; stroke: #000000; stroke-width: 1.25; stroke-linejoin: miter"/>
   </g>
   <g id="patch_33">
    <path d="M 180.826667 133.769867 
C 184.752875 133.769867 188.518804 132.209968 191.295053 129.433719 
C 194.071301 126.657471 195.6312 122.891541 195.6312 118.965333 
C 195.6312 115.039125 194.071301 111.273196 191.295053 108.496947 
C 188.518804 105.720699 184.752875 104.1608 180.826667 104.1608 
C 176.900459 104.1608 173.134529 105.720699 170.358281 108.496947 
C 167.582032 111.273196 166.022133 115.039125 166.022133 118.965333 
C 166.022133 122.891541 167.582032 126.657471 170.358281 129.433719 
C 173.134529 132.209968 176.900459 133.769867 180.826667 133.769867 
L 180.826667 133.769867 
z
" clip-path="url(#p45738d8ad1)" style="fill: none; stroke: #000000; stroke-width: 1.25; stroke-linejoin: miter"/>
   </g>
   <g id="patch_34">
    <path d="M 275.037333 233.364 
L 268.308 236.728667 
L 268.308 233.370729 
L 248.12 233.370729 
L 248.12 233.357271 
L 268.308 233.357271 
L 268.308 229.999333 
z
" clip-path="url(#p45738d8ad1)" style="stroke: #000000; stroke-width: 0.857143; stroke-linejoin: miter"/>
   </g>
   <g id="patch_35">
    <path d="M 275.037333 118.965333 
L 268.308 122.33 
L 268.308 118.972063 
L 248.12 118.972063 
L 248.12 118.958604 
L 268.308 118.958604 
L 268.308 115.600667 
z
" clip-path="url(#p45738d8ad1)" style="stroke: #000000; stroke-linejoin: miter"/>
   </g>
   <g id="patch_36">
    <path d="M 234.661333 186.258667 
L 238.026 192.988 
L 234.668063 192.988 
L 234.668063 226.634667 
L 234.654604 226.634667 
L 234.654604 192.988 
L 231.296667 192.988 
z
" clip-path="url(#p45738d8ad1)" style="stroke: #000000; stroke-width: 1.285714; stroke-linejoin: miter"/>
   </g>
   <g id="patch_37">
    <path d="M 234.661333 159.341333 
L 231.296667 152.612 
L 234.654604 152.612 
L 234.654604 132.424 
L 234.668063 132.424 
L 234.668063 152.612 
L 238.026 152.612 
z
" clip-path="url(#p45738d8ad1)" style="stroke: #000000; stroke-linejoin: miter"/>
   </g>
   <g id="patch_38">
    <path d="M 280.463901 129.790383 
L 277.027075 136.483151 
L 275.041313 133.775293 
L 234.665313 163.38436 
L 234.657354 163.373507 
L 275.033354 133.76444 
L 273.047592 131.056583 
z
" clip-path="url(#p45738d8ad1)" style="stroke: #000000; stroke-linejoin: miter"/>
   </g>
   <g id="patch_39">
    <path d="M 284.957042 133.22835 
L 284.729158 140.748521 
L 281.772592 139.156524 
L 234.667258 226.637857 
L 234.655408 226.631476 
L 281.760742 139.150143 
L 278.804175 137.558145 
z
" clip-path="url(#p45738d8ad1)" style="stroke: #000000; stroke-width: 0.857143; stroke-linejoin: miter"/>
   </g>
   <g id="patch_40">
    <path d="M 280.20695 224.213348 
L 272.883326 222.490142 
L 275.033025 219.910503 
L 234.657025 186.263836 
L 234.665641 186.253497 
L 275.041641 219.900164 
L 277.19134 217.320525 
z
" clip-path="url(#p45738d8ad1)" style="stroke: #000000; stroke-width: 1.5; stroke-linejoin: miter"/>
   </g>
   <g id="patch_41">
    <path d="M 234.661333 186.258667 
L 238.026 192.988 
L 234.668063 192.988 
L 234.668063 226.634667 
L 234.654604 226.634667 
L 234.654604 192.988 
L 231.296667 192.988 
z
" clip-path="url(#p45738d8ad1)" style="stroke: #000000; stroke-width: 1.285714; stroke-linejoin: miter"/>
   </g>
   <g id="patch_42">
    <path d="M 286.372894 225.792096 
L 280.169152 221.535514 
L 283.106647 219.908594 
L 234.655447 132.42726 
L 234.66722 132.42074 
L 283.11842 219.902073 
L 286.055915 218.275153 
z
" clip-path="url(#p45738d8ad1)" style="stroke: #000000; stroke-linejoin: miter"/>
   </g>
   <g id="patch_43">
    <path d="M 221.202667 240.093333 
L 250.811733 240.093333 
L 250.811733 225.2888 
L 221.202667 225.2888 
L 221.202667 240.093333 
z
" clip-path="url(#p45738d8ad1)" style="fill: none; stroke: #000000; stroke-width: 1.25; stroke-linejoin: miter"/>
   </g>
   <g id="patch_44">
    <path d="M 234.661333 186.258667 
L 247.508898 173.411102 
L 234.661333 160.563538 
L 221.813769 173.411102 
L 234.661333 186.258667 
z
" clip-path="url(#p45738d8ad1)" style="fill: none; stroke: #000000; stroke-width: 1.25; stroke-linejoin: miter"/>
   </g>
   <g id="patch_45">
    <path d="M 234.661333 133.769867 
C 238.587541 133.769867 242.353471 132.209968 245.129719 129.433719 
C 247.905968 126.657471 249.465867 122.891541 249.465867 118.965333 
C 249.465867 115.039125 247.905968 111.273196 245.129719 108.496947 
C 242.353471 105.720699 238.587541 104.1608 234.661333 104.1608 
C 230.735125 104.1608 226.969196 105.720699 224.192947 108.496947 
C 221.416699 111.273196 219.8568 115.039125 219.8568 118.965333 
C 219.8568 122.891541 221.416699 126.657471 224.192947 129.433719 
C 226.969196 132.209968 230.735125 133.769867 234.661333 133.769867 
L 234.661333 133.769867 
z
" clip-path="url(#p45738d8ad1)" style="fill: none; stroke: #000000; stroke-width: 1.25; stroke-linejoin: miter"/>
   </g>
   <g id="patch_46">
    <path d="M 275.037333 240.093333 
L 304.6464 240.093333 
L 304.6464 225.2888 
L 275.037333 225.2888 
L 275.037333 240.093333 
z
" clip-path="url(#p45738d8ad1)" style="fill: none; stroke: #000000; stroke-width: 1.25; stroke-linejoin: miter"/>
   </g>
   <g id="patch_47">
    <path d="M 288.496 186.258667 
L 301.343565 173.411102 
L 288.496 160.563538 
L 275.648435 173.411102 
L 288.496 186.258667 
z
" clip-path="url(#p45738d8ad1)" style="fill: none; stroke: #000000; stroke-width: 1.25; stroke-linejoin: miter"/>
   </g>
   <g id="patch_48">
    <path d="M 288.496 133.769867 
C 292.422208 133.769867 296.188138 132.209968 298.964386 129.433719 
C 301.740634 126.657471 303.300533 122.891541 303.300533 118.965333 
C 303.300533 115.039125 301.740634 111.273196 298.964386 108.496947 
C 296.188138 105.720699 292.422208 104.1608 288.496 104.1608 
C 284.569792 104.1608 280.803862 105.720699 278.027614 108.496947 
C 275.251366 111.273196 273.691467 115.039125 273.691467 118.965333 
C 273.691467 122.891541 275.251366 126.657471 278.027614 129.433719 
C 280.803862 132.209968 284.569792 133.769867 288.496 133.769867 
L 288.496 133.769867 
z
" clip-path="url(#p45738d8ad1)" style="fill: none; stroke: #000000; stroke-width: 1.25; stroke-linejoin: miter"/>
   </g>
   <g id="patch_49">
    <path d="M 328.872 233.364 
L 322.142667 236.728667 
L 322.142667 233.370729 
L 301.954667 233.370729 
L 301.954667 233.357271 
L 322.142667 233.357271 
L 322.142667 229.999333 
z
" clip-path="url(#p45738d8ad1)" style="stroke: #000000; stroke-linejoin: miter"/>
   </g>
   <g id="patch_50">
    <path d="M 288.496 186.258667 
L 291.860667 192.988 
L 288.502729 192.988 
L 288.502729 226.634667 
L 288.489271 226.634667 
L 288.489271 192.988 
L 285.131333 192.988 
z
" clip-path="url(#p45738d8ad1)" style="stroke: #000000; stroke-width: 0.5; stroke-linejoin: miter"/>
   </g>
   <g id="patch_51">
    <path d="M 288.496 159.341333 
L 285.131333 152.612 
L 288.489271 152.612 
L 288.489271 132.424 
L 288.502729 132.424 
L 288.502729 152.612 
L 291.860667 152.612 
z
" clip-path="url(#p45738d8ad1)" style="stroke: #000000; stroke-width: 0.6; stroke-linejoin: miter"/>
   </g>
   <g id="patch_52">
    <path d="M 334.041617 224.213348 
L 326.717993 222.490142 
L 328.867692 219.910503 
L 288.491692 186.263836 
L 288.500308 186.253497 
L 328.876308 219.900164 
L 331.026007 217.320525 
z
" clip-path="url(#p45738d8ad1)" style="stroke: #000000; stroke-linejoin: miter"/>
   </g>
   <g id="patch_53">
    <path d="M 340.207561 225.792096 
L 334.003819 221.535514 
L 336.941313 219.908594 
L 288.490113 132.42726 
L 288.501887 132.42074 
L 336.953087 219.902073 
L 339.890581 218.275153 
z
" clip-path="url(#p45738d8ad1)" style="stroke: #000000; stroke-width: 1.8; stroke-linejoin: miter"/>
   </g>
   <g id="patch_54">
    <path d="M 328.872 240.093333 
L 355.789333 240.093333 
L 355.789333 226.634667 
L 328.872 226.634667 
L 328.872 240.093333 
z
" clip-path="url(#p45738d8ad1)" style="fill: none; stroke: #000000; stroke-width: 1.5; stroke-linejoin: miter"/>
   </g>
   <g id="line2d_1">
    <path d="M 59.698667 182.221067 
" clip-path="url(#p45738d8ad1)" style="fill: none; stroke: #000000; stroke-width: 1.5; stroke-linecap: square"/>
    <defs>
     <path id="me965e1e9ac" d="M 2.991081 -2.461244 
L 3.787428 -3.257592 
Q 4.3969 -2.629008 4.696326 -1.917605 
Q 5 -1.174347 5 -0.331281 
Q 5 0.49055 4.696326 1.233808 
Q 4.377787 1.983436 3.787428 2.573795 
Q 3.20344 3.151412 2.460183 3.469951 
Q 1.742408 3.775749 0.892971 3.775749 
Q 0.009556 3.775749 -0.672117 3.469951 
Q -1.442982 3.125929 -1.999363 2.573795 
Q -2.591845 1.983436 -2.910384 1.233808 
Q -3.214058 0.49055 -3.214058 -0.331281 
Q -3.214058 -1.174347 -2.910384 -1.917605 
Q -2.598216 -2.660862 -1.999363 -3.257592 
L -1.767891 -3.491187 
L -3.957316 -3.491187 
L -3.957316 -4.618815 
L -0.268635 -4.618815 
L 0.156084 -4.194096 
L 0.156084 -0.505415 
L -0.971544 -0.505415 
L -0.971544 -2.69484 
L -1.203016 -2.461244 
Q -1.642599 -2.023784 -1.8677 -1.486515 
Q -2.08643 -0.949246 -2.08643 -0.331281 
Q -2.08643 0.265449 -1.8677 0.802718 
Q -1.64897 1.339987 -1.21151 1.777447 
Q -0.786791 2.195795 -0.241028 2.429391 
Q 0.275005 2.648121 0.905712 2.648121 
Q 1.53642 2.648121 2.02697 2.429391 
Q 2.598216 2.170312 2.997452 1.777447 
Q 3.434912 1.339987 3.653642 0.802718 
Q 3.872372 0.265449 3.872372 -0.331281 
Q 3.872372 -0.949246 3.653642 -1.486515 
Q 3.441283 -2.023784 2.991081 -2.461244 
z
" style="stroke: #000000"/>
    </defs>
    <g clip-path="url(#p45738d8ad1)">
     <use xlink:href="#me965e1e9ac" x="59.698667" y="182.221067" style="stroke: #000000"/>
    </g>
   </g>
   <g id="line2d_2">
    <path d="M 113.533333 182.221067 
" clip-path="url(#p45738d8ad1)" style="fill: none; stroke: #000000; stroke-width: 1.5; stroke-linecap: square"/>
    <defs>
     <path id="mdac5b7fb16" d="M 3.290189 -2.707369 
L 4.166171 -3.583351 
Q 4.83659 -2.891909 5.165959 -2.109365 
Q 5.5 -1.291782 5.5 -0.364409 
Q 5.5 0.539605 5.165959 1.357188 
Q 4.815566 2.18178 4.166171 2.831174 
Q 3.523784 3.466553 2.706201 3.816946 
Q 1.916649 4.153323 0.982268 4.153323 
Q 0.010512 4.153323 -0.739329 3.816946 
Q -1.58728 3.438522 -2.199299 2.831174 
Q -2.85103 2.18178 -3.201423 1.357188 
Q -3.535464 0.539605 -3.535464 -0.364409 
Q -3.535464 -1.291782 -3.201423 -2.109365 
Q -2.858038 -2.926948 -2.199299 -3.583351 
L -1.94468 -3.840306 
L -4.353047 -3.840306 
L -4.353047 -5.080697 
L -0.295498 -5.080697 
L 0.171693 -4.613506 
L 0.171693 -0.555957 
L -1.068698 -0.555957 
L -1.068698 -2.964324 
L -1.323317 -2.707369 
Q -1.806859 -2.226163 -2.05447 -1.635167 
Q -2.295073 -1.044171 -2.295073 -0.364409 
Q -2.295073 0.291994 -2.05447 0.88299 
Q -1.813867 1.473986 -1.332661 1.955192 
Q -0.86547 2.415375 -0.265131 2.67233 
Q 0.302506 2.912933 0.996284 2.912933 
Q 1.690062 2.912933 2.229667 2.67233 
Q 2.858038 2.387343 3.297197 1.955192 
Q 3.778403 1.473986 4.019006 0.88299 
Q 4.259609 0.291994 4.259609 -0.364409 
Q 4.259609 -1.044171 4.019006 -1.635167 
Q 3.785411 -2.226163 3.290189 -2.707369 
z
" style="stroke: #000000"/>
    </defs>
    <g clip-path="url(#p45738d8ad1)">
     <use xlink:href="#mdac5b7fb16" x="113.533333" y="182.221067" style="stroke: #000000"/>
    </g>
   </g>
   <g id="line2d_3">
    <path d="M 167.368 182.221067 
" clip-path="url(#p45738d8ad1)" style="fill: none; stroke: #000000; stroke-width: 1.5; stroke-linecap: square"/>
    <g clip-path="url(#p45738d8ad1)">
     <use xlink:href="#mdac5b7fb16" x="167.368" y="182.221067" style="stroke: #000000"/>
    </g>
   </g>
   <g id="line2d_4">
    <path d="M 167.368 182.221067 
" clip-path="url(#p45738d8ad1)" style="fill: none; stroke: #000000; stroke-width: 1.5; stroke-linecap: square"/>
    <g clip-path="url(#p45738d8ad1)">
     <use xlink:href="#mdac5b7fb16" x="167.368" y="182.221067" style="stroke: #000000"/>
    </g>
   </g>
   <g id="line2d_5">
    <path d="M 221.202667 182.221067 
" clip-path="url(#p45738d8ad1)" style="fill: none; stroke: #000000; stroke-width: 1.5; stroke-linecap: square"/>
    <g clip-path="url(#p45738d8ad1)">
     <use xlink:href="#mdac5b7fb16" x="221.202667" y="182.221067" style="stroke: #000000"/>
    </g>
   </g>
   <g id="line2d_6">
    <path d="M 221.202667 182.221067 
" clip-path="url(#p45738d8ad1)" style="fill: none; stroke: #000000; stroke-width: 1.5; stroke-linecap: square"/>
    <defs>
     <path id="m6b8b8b8479" d="M 3.140635 -2.584307 
L 3.9768 -3.420471 
Q 4.616745 -2.760459 4.931142 -2.013485 
Q 5.25 -1.233064 5.25 -0.347845 
Q 5.25 0.515078 4.931142 1.295498 
Q 4.596677 2.082608 3.9768 2.702485 
Q 3.363612 3.308983 2.583192 3.643449 
Q 1.829529 3.964536 0.937619 3.964536 
Q 0.010034 3.964536 -0.705723 3.643449 
Q -1.515131 3.282226 -2.099331 2.702485 
Q -2.721438 2.082608 -3.055904 1.295498 
Q -3.374761 0.515078 -3.374761 -0.347845 
Q -3.374761 -1.233064 -3.055904 -2.013485 
Q -2.728127 -2.793905 -2.099331 -3.420471 
L -1.856286 -3.665746 
L -4.155182 -3.665746 
L -4.155182 -4.849756 
L -0.282066 -4.849756 
L 0.163888 -4.403801 
L 0.163888 -0.530686 
L -1.020121 -0.530686 
L -1.020121 -2.829582 
L -1.263166 -2.584307 
Q -1.724729 -2.124973 -1.961085 -1.560841 
Q -2.190752 -0.996708 -2.190752 -0.347845 
Q -2.190752 0.278722 -1.961085 0.842854 
Q -1.731419 1.406987 -1.272085 1.86632 
Q -0.826131 2.305585 -0.253079 2.55086 
Q 0.288756 2.780527 0.950998 2.780527 
Q 1.613241 2.780527 2.128318 2.55086 
Q 2.728127 2.278828 3.147324 1.86632 
Q 3.606657 1.406987 3.836324 0.842854 
Q 4.065991 0.278722 4.065991 -0.347845 
Q 4.065991 -0.996708 3.836324 -1.560841 
Q 3.613347 -2.124973 3.140635 -2.584307 
z
" style="stroke: #000000"/>
    </defs>
    <g clip-path="url(#p45738d8ad1)">
     <use xlink:href="#m6b8b8b8479" x="221.202667" y="182.221067" style="stroke: #000000"/>
    </g>
   </g>
   <g id="line2d_7">
    <path d="M 275.037333 182.221067 
" clip-path="url(#p45738d8ad1)" style="fill: none; stroke: #000000; stroke-width: 1.5; stroke-linecap: square"/>
    <g clip-path="url(#p45738d8ad1)">
     <use xlink:href="#m6b8b8b8479" x="275.037333" y="182.221067" style="stroke: #000000"/>
    </g>
   </g>
   <g id="text_1">
    <!-- m0 -->
    <g transform="translate(66.428 237.4016)scale(0.0694 -0.0694)">
     <defs>
      <path id="DejaVuSans-6d" d="M 3328 2828 
Q 3544 3216 3844 3400 
Q 4144 3584 4550 3584 
Q 5097 3584 5394 3201 
Q 5691 2819 5691 2113 
L 5691 0 
L 5113 0 
L 5113 2094 
Q 5113 2597 4934 2840 
Q 4756 3084 4391 3084 
Q 3944 3084 3684 2787 
Q 3425 2491 3425 1978 
L 3425 0 
L 2847 0 
L 2847 2094 
Q 2847 2600 2669 2842 
Q 2491 3084 2119 3084 
Q 1678 3084 1418 2786 
Q 1159 2488 1159 1978 
L 1159 0 
L 581 0 
L 581 3500 
L 1159 3500 
L 1159 2956 
Q 1356 3278 1631 3431 
Q 1906 3584 2284 3584 
Q 2666 3584 2933 3390 
Q 3200 3197 3328 2828 
z
" transform="scale(0.015625)"/>
      <path id="DejaVuSans-30" d="M 2034 4250 
Q 1547 4250 1301 3770 
Q 1056 3291 1056 2328 
Q 1056 1369 1301 889 
Q 1547 409 2034 409 
Q 2525 409 2770 889 
Q 3016 1369 3016 2328 
Q 3016 3291 2770 3770 
Q 2525 4250 2034 4250 
z
M 2034 4750 
Q 2819 4750 3233 4129 
Q 3647 3509 3647 2328 
Q 3647 1150 3233 529 
Q 2819 -91 2034 -91 
Q 1250 -91 836 529 
Q 422 1150 422 2328 
Q 422 3509 836 4129 
Q 1250 4750 2034 4750 
z
" transform="scale(0.015625)"/>
     </defs>
     <use xlink:href="#DejaVuSans-6d"/>
     <use xlink:href="#DejaVuSans-30" x="97.412109"/>
    </g>
   </g>
   <g id="text_2">
    <!-- i0 -->
    <g transform="translate(69.792667 179.529333)scale(0.0694 -0.0694)">
     <defs>
      <path id="DejaVuSans-69" d="M 603 3500 
L 1178 3500 
L 1178 0 
L 603 0 
L 603 3500 
z
M 603 4863 
L 1178 4863 
L 1178 4134 
L 603 4134 
L 603 4863 
z
" transform="scale(0.015625)"/>
     </defs>
     <use xlink:href="#DejaVuSans-69"/>
     <use xlink:href="#DejaVuSans-30" x="27.783203"/>
    </g>
   </g>
   <g id="text_3">
    <!-- m1 -->
    <g transform="translate(120.262667 237.4016)scale(0.0694 -0.0694)">
     <defs>
      <path id="DejaVuSans-31" d="M 794 531 
L 1825 531 
L 1825 4091 
L 703 3866 
L 703 4441 
L 1819 4666 
L 2450 4666 
L 2450 531 
L 3481 531 
L 3481 0 
L 794 0 
L 794 531 
z
" transform="scale(0.015625)"/>
     </defs>
     <use xlink:href="#DejaVuSans-6d"/>
     <use xlink:href="#DejaVuSans-31" x="97.412109"/>
    </g>
   </g>
   <g id="text_4">
    <!-- i1 -->
    <g transform="translate(122.9544 179.529333)scale(0.0694 -0.0694)">
     <use xlink:href="#DejaVuSans-69"/>
     <use xlink:href="#DejaVuSans-31" x="27.783203"/>
    </g>
   </g>
   <g id="text_5">
    <!-- d1 -->
    <g transform="translate(120.262667 122.33)scale(0.0694 -0.0694)">
     <defs>
      <path id="DejaVuSans-64" d="M 2906 2969 
L 2906 4863 
L 3481 4863 
L 3481 0 
L 2906 0 
L 2906 525 
Q 2725 213 2448 61 
Q 2172 -91 1784 -91 
Q 1150 -91 751 415 
Q 353 922 353 1747 
Q 353 2572 751 3078 
Q 1150 3584 1784 3584 
Q 2172 3584 2448 3432 
Q 2725 3281 2906 2969 
z
M 947 1747 
Q 947 1113 1208 752 
Q 1469 391 1925 391 
Q 2381 391 2643 752 
Q 2906 1113 2906 1747 
Q 2906 2381 2643 2742 
Q 2381 3103 1925 3103 
Q 1469 3103 1208 2742 
Q 947 2381 947 1747 
z
" transform="scale(0.015625)"/>
     </defs>
     <use xlink:href="#DejaVuSans-64"/>
     <use xlink:href="#DejaVuSans-31" x="63.476562"/>
    </g>
   </g>
   <g id="text_6">
    <!-- m2 -->
    <g transform="translate(174.097333 237.4016)scale(0.0694 -0.0694)">
     <defs>
      <path id="DejaVuSans-32" d="M 1228 531 
L 3431 531 
L 3431 0 
L 469 0 
L 469 531 
Q 828 903 1448 1529 
Q 2069 2156 2228 2338 
Q 2531 2678 2651 2914 
Q 2772 3150 2772 3378 
Q 2772 3750 2511 3984 
Q 2250 4219 1831 4219 
Q 1534 4219 1204 4116 
Q 875 4013 500 3803 
L 500 4441 
Q 881 4594 1212 4672 
Q 1544 4750 1819 4750 
Q 2544 4750 2975 4387 
Q 3406 4025 3406 3419 
Q 3406 3131 3298 2873 
Q 3191 2616 2906 2266 
Q 2828 2175 2409 1742 
Q 1991 1309 1228 531 
z
" transform="scale(0.015625)"/>
     </defs>
     <use xlink:href="#DejaVuSans-6d"/>
     <use xlink:href="#DejaVuSans-32" x="97.412109"/>
    </g>
   </g>
   <g id="text_7">
    <!-- i2 -->
    <g transform="translate(176.789067 179.529333)scale(0.0694 -0.0694)">
     <use xlink:href="#DejaVuSans-69"/>
     <use xlink:href="#DejaVuSans-32" x="27.783203"/>
    </g>
   </g>
   <g id="text_8">
    <!-- d2 -->
    <g transform="translate(174.097333 122.33)scale(0.0694 -0.0694)">
     <use xlink:href="#DejaVuSans-64"/>
     <use xlink:href="#DejaVuSans-32" x="63.476562"/>
    </g>
   </g>
   <g id="text_9">
    <!-- m3 -->
    <g transform="translate(227.932 237.4016)scale(0.0694 -0.0694)">
     <defs>
      <path id="DejaVuSans-33" d="M 2597 2516 
Q 3050 2419 3304 2112 
Q 3559 1806 3559 1356 
Q 3559 666 3084 287 
Q 2609 -91 1734 -91 
Q 1441 -91 1130 -33 
Q 819 25 488 141 
L 488 750 
Q 750 597 1062 519 
Q 1375 441 1716 441 
Q 2309 441 2620 675 
Q 2931 909 2931 1356 
Q 2931 1769 2642 2001 
Q 2353 2234 1838 2234 
L 1294 2234 
L 1294 2753 
L 1863 2753 
Q 2328 2753 2575 2939 
Q 2822 3125 2822 3475 
Q 2822 3834 2567 4026 
Q 2313 4219 1838 4219 
Q 1578 4219 1281 4162 
Q 984 4106 628 3988 
L 628 4550 
Q 988 4650 1302 4700 
Q 1616 4750 1894 4750 
Q 2613 4750 3031 4423 
Q 3450 4097 3450 3541 
Q 3450 3153 3228 2886 
Q 3006 2619 2597 2516 
z
" transform="scale(0.015625)"/>
     </defs>
     <use xlink:href="#DejaVuSans-6d"/>
     <use xlink:href="#DejaVuSans-33" x="97.412109"/>
    </g>
   </g>
   <g id="text_10">
    <!-- i3 -->
    <g transform="translate(230.623733 179.529333)scale(0.0694 -0.0694)">
     <use xlink:href="#DejaVuSans-69"/>
     <use xlink:href="#DejaVuSans-33" x="27.783203"/>
    </g>
   </g>
   <g id="text_11">
    <!-- d3 -->
    <g transform="translate(227.932 122.33)scale(0.0694 -0.0694)">
     <use xlink:href="#DejaVuSans-64"/>
     <use xlink:href="#DejaVuSans-33" x="63.476562"/>
    </g>
   </g>
   <g id="text_12">
    <!-- m4 -->
    <g transform="translate(281.766667 237.4016)scale(0.0694 -0.0694)">
     <defs>
      <path id="DejaVuSans-34" d="M 2419 4116 
L 825 1625 
L 2419 1625 
L 2419 4116 
z
M 2253 4666 
L 3047 4666 
L 3047 1625 
L 3713 1625 
L 3713 1100 
L 3047 1100 
L 3047 0 
L 2419 0 
L 2419 1100 
L 313 1100 
L 313 1709 
L 2253 4666 
z
" transform="scale(0.015625)"/>
     </defs>
     <use xlink:href="#DejaVuSans-6d"/>
     <use xlink:href="#DejaVuSans-34" x="97.412109"/>
    </g>
   </g>
   <g id="text_13">
    <!-- i4 -->
    <g transform="translate(284.4584 179.529333)scale(0.0694 -0.0694)">
     <use xlink:href="#DejaVuSans-69"/>
     <use xlink:href="#DejaVuSans-34" x="27.783203"/>
    </g>
   </g>
   <g id="text_14">
    <!-- d4 -->
    <g transform="translate(281.766667 122.33)scale(0.0694 -0.0694)">
     <use xlink:href="#DejaVuSans-64"/>
     <use xlink:href="#DejaVuSans-34" x="63.476562"/>
    </g>
   </g>
   <g id="text_15">
    <!-- END -->
    <g transform="translate(334.255467 237.4016)scale(0.0694 -0.0694)">
     <defs>
      <path id="DejaVuSans-45" d="M 628 4666 
L 3578 4666 
L 3578 4134 
L 1259 4134 
L 1259 2753 
L 3481 2753 
L 3481 2222 
L 1259 2222 
L 1259 531 
L 3634 531 
L 3634 0 
L 628 0 
L 628 4666 
z
" transform="scale(0.015625)"/>
      <path id="DejaVuSans-4e" d="M 628 4666 
L 1478 4666 
L 3547 763 
L 3547 4666 
L 4159 4666 
L 4159 0 
L 3309 0 
L 1241 3903 
L 1241 0 
L 628 0 
L 628 4666 
z
" transform="scale(0.015625)"/>
      <path id="DejaVuSans-44" d="M 1259 4147 
L 1259 519 
L 2022 519 
Q 2988 519 3436 956 
Q 3884 1394 3884 2338 
Q 3884 3275 3436 3711 
Q 2988 4147 2022 4147 
L 1259 4147 
z
M 628 4666 
L 1925 4666 
Q 3281 4666 3915 4102 
Q 4550 3538 4550 2338 
Q 4550 1131 3912 565 
Q 3275 0 1925 0 
L 628 0 
L 628 4666 
z
" transform="scale(0.015625)"/>
     </defs>
     <use xlink:href="#DejaVuSans-45"/>
     <use xlink:href="#DejaVuSans-4e" x="63.183594"/>
     <use xlink:href="#DejaVuSans-44" x="137.988281"/>
    </g>
   </g>
   <g id="text_16">
    <!-- Profile HMM representing MSA -->
    <g transform="translate(157.570625 72.589333)scale(0.12 -0.12)">
     <defs>
      <path id="DejaVuSans-50" d="M 1259 4147 
L 1259 2394 
L 2053 2394 
Q 2494 2394 2734 2622 
Q 2975 2850 2975 3272 
Q 2975 3691 2734 3919 
Q 2494 4147 2053 4147 
L 1259 4147 
z
M 628 4666 
L 2053 4666 
Q 2838 4666 3239 4311 
Q 3641 3956 3641 3272 
Q 3641 2581 3239 2228 
Q 2838 1875 2053 1875 
L 1259 1875 
L 1259 0 
L 628 0 
L 628 4666 
z
" transform="scale(0.015625)"/>
      <path id="DejaVuSans-72" d="M 2631 2963 
Q 2534 3019 2420 3045 
Q 2306 3072 2169 3072 
Q 1681 3072 1420 2755 
Q 1159 2438 1159 1844 
L 1159 0 
L 581 0 
L 581 3500 
L 1159 3500 
L 1159 2956 
Q 1341 3275 1631 3429 
Q 1922 3584 2338 3584 
Q 2397 3584 2469 3576 
Q 2541 3569 2628 3553 
L 2631 2963 
z
" transform="scale(0.015625)"/>
      <path id="DejaVuSans-6f" d="M 1959 3097 
Q 1497 3097 1228 2736 
Q 959 2375 959 1747 
Q 959 1119 1226 758 
Q 1494 397 1959 397 
Q 2419 397 2687 759 
Q 2956 1122 2956 1747 
Q 2956 2369 2687 2733 
Q 2419 3097 1959 3097 
z
M 1959 3584 
Q 2709 3584 3137 3096 
Q 3566 2609 3566 1747 
Q 3566 888 3137 398 
Q 2709 -91 1959 -91 
Q 1206 -91 779 398 
Q 353 888 353 1747 
Q 353 2609 779 3096 
Q 1206 3584 1959 3584 
z
" transform="scale(0.015625)"/>
      <path id="DejaVuSans-66" d="M 2375 4863 
L 2375 4384 
L 1825 4384 
Q 1516 4384 1395 4259 
Q 1275 4134 1275 3809 
L 1275 3500 
L 2222 3500 
L 2222 3053 
L 1275 3053 
L 1275 0 
L 697 0 
L 697 3053 
L 147 3053 
L 147 3500 
L 697 3500 
L 697 3744 
Q 697 4328 969 4595 
Q 1241 4863 1831 4863 
L 2375 4863 
z
" transform="scale(0.015625)"/>
      <path id="DejaVuSans-6c" d="M 603 4863 
L 1178 4863 
L 1178 0 
L 603 0 
L 603 4863 
z
" transform="scale(0.015625)"/>
      <path id="DejaVuSans-65" d="M 3597 1894 
L 3597 1613 
L 953 1613 
Q 991 1019 1311 708 
Q 1631 397 2203 397 
Q 2534 397 2845 478 
Q 3156 559 3463 722 
L 3463 178 
Q 3153 47 2828 -22 
Q 2503 -91 2169 -91 
Q 1331 -91 842 396 
Q 353 884 353 1716 
Q 353 2575 817 3079 
Q 1281 3584 2069 3584 
Q 2775 3584 3186 3129 
Q 3597 2675 3597 1894 
z
M 3022 2063 
Q 3016 2534 2758 2815 
Q 2500 3097 2075 3097 
Q 1594 3097 1305 2825 
Q 1016 2553 972 2059 
L 3022 2063 
z
" transform="scale(0.015625)"/>
      <path id="DejaVuSans-20" transform="scale(0.015625)"/>
      <path id="DejaVuSans-48" d="M 628 4666 
L 1259 4666 
L 1259 2753 
L 3553 2753 
L 3553 4666 
L 4184 4666 
L 4184 0 
L 3553 0 
L 3553 2222 
L 1259 2222 
L 1259 0 
L 628 0 
L 628 4666 
z
" transform="scale(0.015625)"/>
      <path id="DejaVuSans-4d" d="M 628 4666 
L 1569 4666 
L 2759 1491 
L 3956 4666 
L 4897 4666 
L 4897 0 
L 4281 0 
L 4281 4097 
L 3078 897 
L 2444 897 
L 1241 4097 
L 1241 0 
L 628 0 
L 628 4666 
z
" transform="scale(0.015625)"/>
      <path id="DejaVuSans-70" d="M 1159 525 
L 1159 -1331 
L 581 -1331 
L 581 3500 
L 1159 3500 
L 1159 2969 
Q 1341 3281 1617 3432 
Q 1894 3584 2278 3584 
Q 2916 3584 3314 3078 
Q 3713 2572 3713 1747 
Q 3713 922 3314 415 
Q 2916 -91 2278 -91 
Q 1894 -91 1617 61 
Q 1341 213 1159 525 
z
M 3116 1747 
Q 3116 2381 2855 2742 
Q 2594 3103 2138 3103 
Q 1681 3103 1420 2742 
Q 1159 2381 1159 1747 
Q 1159 1113 1420 752 
Q 1681 391 2138 391 
Q 2594 391 2855 752 
Q 3116 1113 3116 1747 
z
" transform="scale(0.015625)"/>
      <path id="DejaVuSans-73" d="M 2834 3397 
L 2834 2853 
Q 2591 2978 2328 3040 
Q 2066 3103 1784 3103 
Q 1356 3103 1142 2972 
Q 928 2841 928 2578 
Q 928 2378 1081 2264 
Q 1234 2150 1697 2047 
L 1894 2003 
Q 2506 1872 2764 1633 
Q 3022 1394 3022 966 
Q 3022 478 2636 193 
Q 2250 -91 1575 -91 
Q 1294 -91 989 -36 
Q 684 19 347 128 
L 347 722 
Q 666 556 975 473 
Q 1284 391 1588 391 
Q 1994 391 2212 530 
Q 2431 669 2431 922 
Q 2431 1156 2273 1281 
Q 2116 1406 1581 1522 
L 1381 1569 
Q 847 1681 609 1914 
Q 372 2147 372 2553 
Q 372 3047 722 3315 
Q 1072 3584 1716 3584 
Q 2034 3584 2315 3537 
Q 2597 3491 2834 3397 
z
" transform="scale(0.015625)"/>
      <path id="DejaVuSans-6e" d="M 3513 2113 
L 3513 0 
L 2938 0 
L 2938 2094 
Q 2938 2591 2744 2837 
Q 2550 3084 2163 3084 
Q 1697 3084 1428 2787 
Q 1159 2491 1159 1978 
L 1159 0 
L 581 0 
L 581 3500 
L 1159 3500 
L 1159 2956 
Q 1366 3272 1645 3428 
Q 1925 3584 2291 3584 
Q 2894 3584 3203 3211 
Q 3513 2838 3513 2113 
z
" transform="scale(0.015625)"/>
      <path id="DejaVuSans-74" d="M 1172 4494 
L 1172 3500 
L 2356 3500 
L 2356 3053 
L 1172 3053 
L 1172 1153 
Q 1172 725 1289 603 
Q 1406 481 1766 481 
L 2356 481 
L 2356 0 
L 1766 0 
Q 1100 0 847 248 
Q 594 497 594 1153 
L 594 3053 
L 172 3053 
L 172 3500 
L 594 3500 
L 594 4494 
L 1172 4494 
z
" transform="scale(0.015625)"/>
      <path id="DejaVuSans-67" d="M 2906 1791 
Q 2906 2416 2648 2759 
Q 2391 3103 1925 3103 
Q 1463 3103 1205 2759 
Q 947 2416 947 1791 
Q 947 1169 1205 825 
Q 1463 481 1925 481 
Q 2391 481 2648 825 
Q 2906 1169 2906 1791 
z
M 3481 434 
Q 3481 -459 3084 -895 
Q 2688 -1331 1869 -1331 
Q 1566 -1331 1297 -1286 
Q 1028 -1241 775 -1147 
L 775 -588 
Q 1028 -725 1275 -790 
Q 1522 -856 1778 -856 
Q 2344 -856 2625 -561 
Q 2906 -266 2906 331 
L 2906 616 
Q 2728 306 2450 153 
Q 2172 0 1784 0 
Q 1141 0 747 490 
Q 353 981 353 1791 
Q 353 2603 747 3093 
Q 1141 3584 1784 3584 
Q 2172 3584 2450 3431 
Q 2728 3278 2906 2969 
L 2906 3500 
L 3481 3500 
L 3481 434 
z
" transform="scale(0.015625)"/>
      <path id="DejaVuSans-53" d="M 3425 4513 
L 3425 3897 
Q 3066 4069 2747 4153 
Q 2428 4238 2131 4238 
Q 1616 4238 1336 4038 
Q 1056 3838 1056 3469 
Q 1056 3159 1242 3001 
Q 1428 2844 1947 2747 
L 2328 2669 
Q 3034 2534 3370 2195 
Q 3706 1856 3706 1288 
Q 3706 609 3251 259 
Q 2797 -91 1919 -91 
Q 1588 -91 1214 -16 
Q 841 59 441 206 
L 441 856 
Q 825 641 1194 531 
Q 1563 422 1919 422 
Q 2459 422 2753 634 
Q 3047 847 3047 1241 
Q 3047 1584 2836 1778 
Q 2625 1972 2144 2069 
L 1759 2144 
Q 1053 2284 737 2584 
Q 422 2884 422 3419 
Q 422 4038 858 4394 
Q 1294 4750 2059 4750 
Q 2388 4750 2728 4690 
Q 3069 4631 3425 4513 
z
" transform="scale(0.015625)"/>
      <path id="DejaVuSans-41" d="M 2188 4044 
L 1331 1722 
L 3047 1722 
L 2188 4044 
z
M 1831 4666 
L 2547 4666 
L 4325 0 
L 3669 0 
L 3244 1197 
L 1141 1197 
L 716 0 
L 50 0 
L 1831 4666 
z
" transform="scale(0.015625)"/>
     </defs>
     <use xlink:href="#DejaVuSans-50"/>
     <use xlink:href="#DejaVuSans-72" x="58.552734"/>
     <use xlink:href="#DejaVuSans-6f" x="97.416016"/>
     <use xlink:href="#DejaVuSans-66" x="158.597656"/>
     <use xlink:href="#DejaVuSans-69" x="193.802734"/>
     <use xlink:href="#DejaVuSans-6c" x="221.585938"/>
     <use xlink:href="#DejaVuSans-65" x="249.369141"/>
     <use xlink:href="#DejaVuSans-20" x="310.892578"/>
     <use xlink:href="#DejaVuSans-48" x="342.679688"/>
     <use xlink:href="#DejaVuSans-4d" x="417.875"/>
     <use xlink:href="#DejaVuSans-4d" x="504.154297"/>
     <use xlink:href="#DejaVuSans-20" x="590.433594"/>
     <use xlink:href="#DejaVuSans-72" x="622.220703"/>
     <use xlink:href="#DejaVuSans-65" x="661.083984"/>
     <use xlink:href="#DejaVuSans-70" x="722.607422"/>
     <use xlink:href="#DejaVuSans-72" x="786.083984"/>
     <use xlink:href="#DejaVuSans-65" x="824.947266"/>
     <use xlink:href="#DejaVuSans-73" x="886.470703"/>
     <use xlink:href="#DejaVuSans-65" x="938.570312"/>
     <use xlink:href="#DejaVuSans-6e" x="1000.09375"/>
     <use xlink:href="#DejaVuSans-74" x="1063.472656"/>
     <use xlink:href="#DejaVuSans-69" x="1102.681641"/>
     <use xlink:href="#DejaVuSans-6e" x="1130.464844"/>
     <use xlink:href="#DejaVuSans-67" x="1193.84375"/>
     <use xlink:href="#DejaVuSans-20" x="1257.320312"/>
     <use xlink:href="#DejaVuSans-4d" x="1289.107422"/>
     <use xlink:href="#DejaVuSans-53" x="1375.386719"/>
     <use xlink:href="#DejaVuSans-41" x="1440.738281"/>
    </g>
   </g>
  </g>
 </g>
 <defs>
  <clipPath id="p45738d8ad1">
   <rect x="46.24" y="78.589333" width="403.76" height="188.421333"/>
  </clipPath>
 </defs>
</svg>
