<?xml version="1.0" encoding="utf-8" standalone="no"?>
<!DOCTYPE svg PUBLIC "-//W3C//DTD SVG 1.1//EN"
  "http://www.w3.org/Graphics/SVG/1.1/DTD/svg11.dtd">
<svg xmlns:xlink="http://www.w3.org/1999/xlink" width="460.8pt" height="345.6pt" viewBox="0 0 460.8 345.6" xmlns="http://www.w3.org/2000/svg" version="1.1">
 <metadata>
  <rdf:RDF xmlns:dc="http://purl.org/dc/elements/1.1/" xmlns:cc="http://creativecommons.org/ns#" xmlns:rdf="http://www.w3.org/1999/02/22-rdf-syntax-ns#">
   <cc:Work>
    <dc:type rdf:resource="http://purl.org/dc/dcmitype/StillImage"/>
    <dc:date>2022-11-18T19:17:21.249792</dc:date>
    <dc:format>image/svg+xml</dc:format>
    <dc:creator>
     <cc:Agent>
      <dc:title>Matplotlib v3.5.3, https://matplotlib.org/</dc:title>
     </cc:Agent>
    </dc:creator>
   </cc:Work>
  </rdf:RDF>
 </metadata>
 <defs>
  <style type="text/css">*{stroke-linejoin: round; stroke-linecap: butt}</style>
 </defs>
 <g id="figure_1">
  <g id="patch_1">
   <path d="M 0 345.6 
L 460.8 345.6 
L 460.8 0 
L 0 0 
z
" style="fill: #ffffff"/>
  </g>
  <g id="axes_1">
   <g id="patch_2">
    <path d="M 59.698667 277.268571 
L 86.616 277.268571 
L 86.616 257.042857 
L 59.698667 257.042857 
L 59.698667 277.268571 
z
" clip-path="url(#p044d3d07d2)" style="fill: none; stroke: #000000; stroke-width: 1.5; stroke-linejoin: miter"/>
   </g>
   <g id="patch_3">
    <path d="M 73.157333 196.365714 
L 85.053226 178.48854 
L 73.157333 160.611365 
L 61.26144 178.48854 
L 73.157333 196.365714 
z
" clip-path="url(#p044d3d07d2)" style="fill: none; stroke: #000000; stroke-width: 1.25; stroke-linejoin: miter"/>
   </g>
   <g id="patch_4">
    <path d="M 113.533333 277.268571 
L 140.450667 277.268571 
L 140.450667 257.042857 
L 113.533333 257.042857 
L 113.533333 277.268571 
z
" clip-path="url(#p044d3d07d2)" style="fill: none; stroke: #000000; stroke-width: 1.5; stroke-linejoin: miter"/>
   </g>
   <g id="patch_5">
    <path d="M 126.992 196.365714 
L 138.887893 178.48854 
L 126.992 160.611365 
L 115.096107 178.48854 
L 126.992 196.365714 
z
" clip-path="url(#p044d3d07d2)" style="fill: none; stroke: #000000; stroke-width: 1.25; stroke-linejoin: miter"/>
   </g>
   <g id="patch_6">
    <path d="M 126.992 117.485429 
C 130.918208 117.485429 134.684138 115.141209 137.460386 110.969057 
C 140.236634 106.796904 141.796533 101.137457 141.796533 95.237143 
C 141.796533 89.336829 140.236634 83.677381 137.460386 79.505229 
C 134.684138 75.333077 130.918208 72.988857 126.992 72.988857 
C 123.065792 72.988857 119.299862 75.333077 116.523614 79.505229 
C 113.747366 83.677381 112.187467 89.336829 112.187467 95.237143 
C 112.187467 101.137457 113.747366 106.796904 116.523614 110.969057 
C 119.299862 115.141209 123.065792 117.485429 126.992 117.485429 
L 126.992 117.485429 
z
" clip-path="url(#p044d3d07d2)" style="fill: none; stroke: #000000; stroke-width: 1.25; stroke-linejoin: miter"/>
   </g>
   <g id="patch_7">
    <path d="M 167.368 277.268571 
L 194.285333 277.268571 
L 194.285333 257.042857 
L 167.368 257.042857 
L 167.368 277.268571 
z
" clip-path="url(#p044d3d07d2)" style="fill: none; stroke: #000000; stroke-width: 1.5; stroke-linejoin: miter"/>
   </g>
   <g id="patch_8">
    <path d="M 180.826667 196.365714 
L 192.72256 178.48854 
L 180.826667 160.611365 
L 168.930774 178.48854 
L 180.826667 196.365714 
z
" clip-path="url(#p044d3d07d2)" style="fill: none; stroke: #000000; stroke-width: 1.25; stroke-linejoin: miter"/>
   </g>
   <g id="patch_9">
    <path d="M 180.826667 117.485429 
C 184.752875 117.485429 188.518804 115.141209 191.295053 110.969057 
C 194.071301 106.796904 195.6312 101.137457 195.6312 95.237143 
C 195.6312 89.336829 194.071301 83.677381 191.295053 79.505229 
C 188.518804 75.333077 184.752875 72.988857 180.826667 72.988857 
C 176.900459 72.988857 173.134529 75.333077 170.358281 79.505229 
C 167.582032 83.677381 166.022133 89.336829 166.022133 95.237143 
C 166.022133 101.137457 167.582032 106.796904 170.358281 110.969057 
C 173.134529 115.141209 176.900459 117.485429 180.826667 117.485429 
L 180.826667 117.485429 
z
" clip-path="url(#p044d3d07d2)" style="fill: none; stroke: #000000; stroke-width: 1.25; stroke-linejoin: miter"/>
   </g>
   <g id="patch_10">
    <path d="M 221.202667 277.268571 
L 248.12 277.268571 
L 248.12 257.042857 
L 221.202667 257.042857 
L 221.202667 277.268571 
z
" clip-path="url(#p044d3d07d2)" style="fill: none; stroke: #000000; stroke-width: 1.5; stroke-linejoin: miter"/>
   </g>
   <g id="patch_11">
    <path d="M 234.661333 196.365714 
L 246.557226 178.48854 
L 234.661333 160.611365 
L 222.76544 178.48854 
L 234.661333 196.365714 
z
" clip-path="url(#p044d3d07d2)" style="fill: none; stroke: #000000; stroke-width: 1.25; stroke-linejoin: miter"/>
   </g>
   <g id="patch_12">
    <path d="M 234.661333 117.485429 
C 238.587541 117.485429 242.353471 115.141209 245.129719 110.969057 
C 247.905968 106.796904 249.465867 101.137457 249.465867 95.237143 
C 249.465867 89.336829 247.905968 83.677381 245.129719 79.505229 
C 242.353471 75.333077 238.587541 72.988857 234.661333 72.988857 
C 230.735125 72.988857 226.969196 75.333077 224.192947 79.505229 
C 221.416699 83.677381 219.8568 89.336829 219.8568 95.237143 
C 219.8568 101.137457 221.416699 106.796904 224.192947 110.969057 
C 226.969196 115.141209 230.735125 117.485429 234.661333 117.485429 
L 234.661333 117.485429 
z
" clip-path="url(#p044d3d07d2)" style="fill: none; stroke: #000000; stroke-width: 1.25; stroke-linejoin: miter"/>
   </g>
   <g id="patch_13">
    <path d="M 275.037333 277.268571 
L 301.954667 277.268571 
L 301.954667 257.042857 
L 275.037333 257.042857 
L 275.037333 277.268571 
z
" clip-path="url(#p044d3d07d2)" style="fill: none; stroke: #000000; stroke-width: 1.5; stroke-linejoin: miter"/>
   </g>
   <g id="patch_14">
    <path d="M 288.496 196.365714 
L 300.391893 178.48854 
L 288.496 160.611365 
L 276.600107 178.48854 
L 288.496 196.365714 
z
" clip-path="url(#p044d3d07d2)" style="fill: none; stroke: #000000; stroke-width: 1.25; stroke-linejoin: miter"/>
   </g>
   <g id="patch_15">
    <path d="M 288.496 117.485429 
C 292.422208 117.485429 296.188138 115.141209 298.964386 110.969057 
C 301.740634 106.796904 303.300533 101.137457 303.300533 95.237143 
C 303.300533 89.336829 301.740634 83.677381 298.964386 79.505229 
C 296.188138 75.333077 292.422208 72.988857 288.496 72.988857 
C 284.569792 72.988857 280.803862 75.333077 278.027614 79.505229 
C 275.251366 83.677381 273.691467 89.336829 273.691467 95.237143 
C 273.691467 101.137457 275.251366 106.796904 278.027614 110.969057 
C 280.803862 115.141209 284.569792 117.485429 288.496 117.485429 
L 288.496 117.485429 
z
" clip-path="url(#p044d3d07d2)" style="fill: none; stroke: #000000; stroke-width: 1.25; stroke-linejoin: miter"/>
   </g>
   <g id="patch_16">
    <path d="M 113.533333 267.155714 
L 106.804 272.212143 
L 106.804 267.165827 
L 86.616 267.165827 
L 86.616 267.145601 
L 106.804 267.145601 
L 106.804 262.099286 
z
" clip-path="url(#p044d3d07d2)" style="stroke: #000000; stroke-linejoin: miter"/>
   </g>
   <g id="patch_17">
    <path d="M 73.157333 196.365714 
L 76.522 206.478571 
L 73.164063 206.478571 
L 73.164063 257.042857 
L 73.150604 257.042857 
L 73.150604 206.478571 
L 69.792667 206.478571 
z
" clip-path="url(#p044d3d07d2)" style="stroke: #000000; stroke-linejoin: miter"/>
   </g>
   <g id="patch_18">
    <path d="M 123.453042 116.671636 
L 123.225158 127.972966 
L 120.268592 125.580509 
L 73.163258 257.047652 
L 73.151408 257.038063 
L 120.256742 125.57092 
L 117.300175 123.178462 
z
" clip-path="url(#p044d3d07d2)" style="stroke: #000000; stroke-linejoin: miter"/>
   </g>
   <g id="patch_19">
    <path d="M 118.70295 253.404093 
L 111.379326 250.814456 
L 113.529025 246.937769 
L 73.153025 196.373483 
L 73.161641 196.357945 
L 113.537641 246.922231 
L 115.68734 243.045544 
z
" clip-path="url(#p044d3d07d2)" style="stroke: #000000; stroke-linejoin: miter"/>
   </g>
   <g id="patch_20">
    <path d="M 118.959901 111.505052 
L 115.523075 121.562958 
L 113.537313 117.493584 
L 73.161313 161.990155 
L 73.153354 161.973845 
L 113.529354 117.477274 
L 111.543592 113.407899 
z
" clip-path="url(#p044d3d07d2)" style="stroke: #000000; stroke-linejoin: miter"/>
   </g>
   <g id="patch_21">
    <path d="M 113.533333 267.155714 
L 106.804 272.212143 
L 106.804 267.165827 
L 86.616 267.165827 
L 86.616 267.145601 
L 106.804 267.145601 
L 106.804 262.099286 
z
" clip-path="url(#p044d3d07d2)" style="fill: #ff0000; stroke: #ff0000; stroke-width: 5; stroke-linejoin: miter"/>
   </g>
   <g id="patch_22">
    <path d="M 167.368 267.155714 
L 160.638667 272.212143 
L 160.638667 267.165827 
L 140.450667 267.165827 
L 140.450667 267.145601 
L 160.638667 267.145601 
L 160.638667 262.099286 
z
" clip-path="url(#p044d3d07d2)" style="stroke: #000000; stroke-linejoin: miter"/>
   </g>
   <g id="patch_23">
    <path d="M 126.992 196.365714 
L 130.356667 206.478571 
L 126.998729 206.478571 
L 126.998729 257.042857 
L 126.985271 257.042857 
L 126.985271 206.478571 
L 123.627333 206.478571 
z
" clip-path="url(#p044d3d07d2)" style="stroke: #000000; stroke-linejoin: miter"/>
   </g>
   <g id="patch_24">
    <path d="M 177.287709 116.671636 
L 177.059825 127.972966 
L 174.103258 125.580509 
L 126.997925 257.047652 
L 126.986075 257.038063 
L 174.091408 125.57092 
L 171.134842 123.178462 
z
" clip-path="url(#p044d3d07d2)" style="stroke: #000000; stroke-linejoin: miter"/>
   </g>
   <g id="patch_25">
    <path d="M 172.537617 253.404093 
L 165.213993 250.814456 
L 167.363692 246.937769 
L 126.987692 196.373483 
L 126.996308 196.357945 
L 167.372308 246.922231 
L 169.522007 243.045544 
z
" clip-path="url(#p044d3d07d2)" style="stroke: #000000; stroke-linejoin: miter"/>
   </g>
   <g id="patch_26">
    <path d="M 172.794568 111.505052 
L 169.357742 121.562958 
L 167.371979 117.493584 
L 126.995979 161.990155 
L 126.988021 161.973845 
L 167.364021 117.477274 
L 165.378258 113.407899 
z
" clip-path="url(#p044d3d07d2)" style="stroke: #000000; stroke-linejoin: miter"/>
   </g>
   <g id="patch_27">
    <path d="M 167.368 95.237143 
L 160.638667 100.293571 
L 160.638667 95.247256 
L 140.450667 95.247256 
L 140.450667 95.22703 
L 160.638667 95.22703 
L 160.638667 90.180714 
z
" clip-path="url(#p044d3d07d2)" style="stroke: #000000; stroke-linejoin: miter"/>
   </g>
   <g id="patch_28">
    <path d="M 126.992 155.914286 
L 123.627333 145.801429 
L 126.985271 145.801429 
L 126.985271 115.462857 
L 126.998729 115.462857 
L 126.998729 145.801429 
L 130.356667 145.801429 
z
" clip-path="url(#p044d3d07d2)" style="stroke: #000000; stroke-linejoin: miter"/>
   </g>
   <g id="patch_29">
    <path d="M 178.703561 255.77664 
L 172.499819 249.379839 
L 175.437313 246.9349 
L 126.986113 115.467757 
L 126.997887 115.457957 
L 175.449087 246.9251 
L 178.386581 244.480161 
z
" clip-path="url(#p044d3d07d2)" style="stroke: #000000; stroke-linejoin: miter"/>
   </g>
   <g id="patch_30">
    <path d="M 126.992 196.365714 
L 130.356667 206.478571 
L 126.998729 206.478571 
L 126.998729 257.042857 
L 126.985271 257.042857 
L 126.985271 206.478571 
L 123.627333 206.478571 
z
" clip-path="url(#p044d3d07d2)" style="fill: #ff0000; stroke: #ff0000; stroke-width: 5; stroke-linejoin: miter"/>
   </g>
   <g id="patch_31">
    <path d="M 172.537617 253.404093 
L 165.213993 250.814456 
L 167.363692 246.937769 
L 126.987692 196.373483 
L 126.996308 196.357945 
L 167.372308 246.922231 
L 169.522007 243.045544 
z
" clip-path="url(#p044d3d07d2)" style="fill: #ff0000; stroke: #ff0000; stroke-width: 5; stroke-linejoin: miter"/>
   </g>
   <g id="patch_32">
    <path d="M 221.202667 267.155714 
L 214.473333 272.212143 
L 214.473333 267.165827 
L 194.285333 267.165827 
L 194.285333 267.145601 
L 214.473333 267.145601 
L 214.473333 262.099286 
z
" clip-path="url(#p044d3d07d2)" style="stroke: #000000; stroke-linejoin: miter"/>
   </g>
   <g id="patch_33">
    <path d="M 180.826667 196.365714 
L 184.191333 206.478571 
L 180.833396 206.478571 
L 180.833396 257.042857 
L 180.819937 257.042857 
L 180.819937 206.478571 
L 177.462 206.478571 
z
" clip-path="url(#p044d3d07d2)" style="stroke: #000000; stroke-linejoin: miter"/>
   </g>
   <g id="patch_34">
    <path d="M 231.122376 116.671636 
L 230.894492 127.972966 
L 227.937925 125.580509 
L 180.832592 257.047652 
L 180.820742 257.038063 
L 227.926075 125.57092 
L 224.969508 123.178462 
z
" clip-path="url(#p044d3d07d2)" style="stroke: #000000; stroke-linejoin: miter"/>
   </g>
   <g id="patch_35">
    <path d="M 226.372284 253.404093 
L 219.04866 250.814456 
L 221.198359 246.937769 
L 180.822359 196.373483 
L 180.830975 196.357945 
L 221.206975 246.922231 
L 223.356674 243.045544 
z
" clip-path="url(#p044d3d07d2)" style="stroke: #000000; stroke-linejoin: miter"/>
   </g>
   <g id="patch_36">
    <path d="M 226.629235 111.505052 
L 223.192408 121.562958 
L 221.206646 117.493584 
L 180.830646 161.990155 
L 180.822687 161.973845 
L 221.198687 117.477274 
L 219.212925 113.407899 
z
" clip-path="url(#p044d3d07d2)" style="stroke: #000000; stroke-linejoin: miter"/>
   </g>
   <g id="patch_37">
    <path d="M 221.202667 95.237143 
L 214.473333 100.293571 
L 214.473333 95.247256 
L 194.285333 95.247256 
L 194.285333 95.22703 
L 214.473333 95.22703 
L 214.473333 90.180714 
z
" clip-path="url(#p044d3d07d2)" style="stroke: #000000; stroke-linejoin: miter"/>
   </g>
   <g id="patch_38">
    <path d="M 180.826667 155.914286 
L 177.462 145.801429 
L 180.819937 145.801429 
L 180.819937 115.462857 
L 180.833396 115.462857 
L 180.833396 145.801429 
L 184.191333 145.801429 
z
" clip-path="url(#p044d3d07d2)" style="stroke: #000000; stroke-linejoin: miter"/>
   </g>
   <g id="patch_39">
    <path d="M 232.538228 255.77664 
L 226.334485 249.379839 
L 229.27198 246.9349 
L 180.82078 115.467757 
L 180.832553 115.457957 
L 229.283753 246.9251 
L 232.221248 244.480161 
z
" clip-path="url(#p044d3d07d2)" style="stroke: #000000; stroke-linejoin: miter"/>
   </g>
   <g id="patch_40">
    <path d="M 226.372284 253.404093 
L 219.04866 250.814456 
L 221.198359 246.937769 
L 180.822359 196.373483 
L 180.830975 196.357945 
L 221.206975 246.922231 
L 223.356674 243.045544 
z
" clip-path="url(#p044d3d07d2)" style="fill: #ff0000; stroke: #ff0000; stroke-width: 5; stroke-linejoin: miter"/>
   </g>
   <g id="patch_41">
    <path d="M 180.826667 196.365714 
L 184.191333 206.478571 
L 180.833396 206.478571 
L 180.833396 257.042857 
L 180.819937 257.042857 
L 180.819937 206.478571 
L 177.462 206.478571 
z
" clip-path="url(#p044d3d07d2)" style="fill: #ff0000; stroke: #ff0000; stroke-width: 5; stroke-linejoin: miter"/>
   </g>
   <g id="patch_42">
    <path d="M 275.037333 267.155714 
L 268.308 272.212143 
L 268.308 267.165827 
L 248.12 267.165827 
L 248.12 267.145601 
L 268.308 267.145601 
L 268.308 262.099286 
z
" clip-path="url(#p044d3d07d2)" style="stroke: #000000; stroke-linejoin: miter"/>
   </g>
   <g id="patch_43">
    <path d="M 234.661333 196.365714 
L 238.026 206.478571 
L 234.668063 206.478571 
L 234.668063 257.042857 
L 234.654604 257.042857 
L 234.654604 206.478571 
L 231.296667 206.478571 
z
" clip-path="url(#p044d3d07d2)" style="stroke: #000000; stroke-linejoin: miter"/>
   </g>
   <g id="patch_44">
    <path d="M 284.957042 116.671636 
L 284.729158 127.972966 
L 281.772592 125.580509 
L 234.667258 257.047652 
L 234.655408 257.038063 
L 281.760742 125.57092 
L 278.804175 123.178462 
z
" clip-path="url(#p044d3d07d2)" style="stroke: #000000; stroke-linejoin: miter"/>
   </g>
   <g id="patch_45">
    <path d="M 280.20695 253.404093 
L 272.883326 250.814456 
L 275.033025 246.937769 
L 234.657025 196.373483 
L 234.665641 196.357945 
L 275.041641 246.922231 
L 277.19134 243.045544 
z
" clip-path="url(#p044d3d07d2)" style="stroke: #000000; stroke-linejoin: miter"/>
   </g>
   <g id="patch_46">
    <path d="M 280.463901 111.505052 
L 277.027075 121.562958 
L 275.041313 117.493584 
L 234.665313 161.990155 
L 234.657354 161.973845 
L 275.033354 117.477274 
L 273.047592 113.407899 
z
" clip-path="url(#p044d3d07d2)" style="stroke: #000000; stroke-linejoin: miter"/>
   </g>
   <g id="patch_47">
    <path d="M 275.037333 95.237143 
L 268.308 100.293571 
L 268.308 95.247256 
L 248.12 95.247256 
L 248.12 95.22703 
L 268.308 95.22703 
L 268.308 90.180714 
z
" clip-path="url(#p044d3d07d2)" style="stroke: #000000; stroke-linejoin: miter"/>
   </g>
   <g id="patch_48">
    <path d="M 234.661333 155.914286 
L 231.296667 145.801429 
L 234.654604 145.801429 
L 234.654604 115.462857 
L 234.668063 115.462857 
L 234.668063 145.801429 
L 238.026 145.801429 
z
" clip-path="url(#p044d3d07d2)" style="stroke: #000000; stroke-linejoin: miter"/>
   </g>
   <g id="patch_49">
    <path d="M 286.372894 255.77664 
L 280.169152 249.379839 
L 283.106647 246.9349 
L 234.655447 115.467757 
L 234.66722 115.457957 
L 283.11842 246.9251 
L 286.055915 244.480161 
z
" clip-path="url(#p044d3d07d2)" style="stroke: #000000; stroke-linejoin: miter"/>
   </g>
   <g id="patch_50">
    <path d="M 275.037333 267.155714 
L 268.308 272.212143 
L 268.308 267.165827 
L 248.12 267.165827 
L 248.12 267.145601 
L 268.308 267.145601 
L 268.308 262.099286 
z
" clip-path="url(#p044d3d07d2)" style="fill: #ff0000; stroke: #ff0000; stroke-width: 5; stroke-linejoin: miter"/>
   </g>
   <g id="patch_51">
    <path d="M 328.872 267.155714 
L 322.142667 272.212143 
L 322.142667 267.165827 
L 301.954667 267.165827 
L 301.954667 267.145601 
L 322.142667 267.145601 
L 322.142667 262.099286 
z
" clip-path="url(#p044d3d07d2)" style="stroke: #000000; stroke-linejoin: miter"/>
   </g>
   <g id="patch_52">
    <path d="M 288.496 196.365714 
L 291.860667 206.478571 
L 288.502729 206.478571 
L 288.502729 257.042857 
L 288.489271 257.042857 
L 288.489271 206.478571 
L 285.131333 206.478571 
z
" clip-path="url(#p044d3d07d2)" style="stroke: #000000; stroke-linejoin: miter"/>
   </g>
   <g id="patch_53">
    <path d="M 334.041617 253.404093 
L 326.717993 250.814456 
L 328.867692 246.937769 
L 288.491692 196.373483 
L 288.500308 196.357945 
L 328.876308 246.922231 
L 331.026007 243.045544 
z
" clip-path="url(#p044d3d07d2)" style="stroke: #000000; stroke-linejoin: miter"/>
   </g>
   <g id="patch_54">
    <path d="M 340.207561 255.77664 
L 334.003819 249.379839 
L 336.941313 246.9349 
L 288.490113 115.467757 
L 288.501887 115.457957 
L 336.953087 246.9251 
L 339.890581 244.480161 
z
" clip-path="url(#p044d3d07d2)" style="stroke: #000000; stroke-linejoin: miter"/>
   </g>
   <g id="patch_55">
    <path d="M 288.496 155.914286 
L 285.131333 145.801429 
L 288.489271 145.801429 
L 288.489271 115.462857 
L 288.502729 115.462857 
L 288.502729 145.801429 
L 291.860667 145.801429 
z
" clip-path="url(#p044d3d07d2)" style="stroke: #000000; stroke-linejoin: miter"/>
   </g>
   <g id="patch_56">
    <path d="M 288.496 196.365714 
L 291.860667 206.478571 
L 288.502729 206.478571 
L 288.502729 257.042857 
L 288.489271 257.042857 
L 288.489271 206.478571 
L 285.131333 206.478571 
z
" clip-path="url(#p044d3d07d2)" style="fill: #ff0000; stroke: #ff0000; stroke-width: 5; stroke-linejoin: miter"/>
   </g>
   <g id="patch_57">
    <path d="M 334.041617 253.404093 
L 326.717993 250.814456 
L 328.867692 246.937769 
L 288.491692 196.373483 
L 288.500308 196.357945 
L 328.876308 246.922231 
L 331.026007 243.045544 
z
" clip-path="url(#p044d3d07d2)" style="fill: #ff0000; stroke: #ff0000; stroke-width: 5; stroke-linejoin: miter"/>
   </g>
   <g id="patch_58">
    <path d="M 328.872 277.268571 
L 355.789333 277.268571 
L 355.789333 257.042857 
L 328.872 257.042857 
L 328.872 277.268571 
z
" clip-path="url(#p044d3d07d2)" style="fill: none; stroke: #000000; stroke-width: 1.5; stroke-linejoin: miter"/>
   </g>
   <g id="line2d_1">
    <path d="M 59.698667 190.298 
" clip-path="url(#p044d3d07d2)" style="fill: none; stroke: #000000; stroke-width: 1.5; stroke-linecap: square"/>
    <defs>
     <path id="m32a6fbc06e" d="M 2.991081 -2.461244 
L 3.787428 -3.257592 
Q 4.3969 -2.629008 4.696326 -1.917605 
Q 5 -1.174347 5 -0.331281 
Q 5 0.49055 4.696326 1.233808 
Q 4.377787 1.983436 3.787428 2.573795 
Q 3.20344 3.151412 2.460183 3.469951 
Q 1.742408 3.775749 0.892971 3.775749 
Q 0.009556 3.775749 -0.672117 3.469951 
Q -1.442982 3.125929 -1.999363 2.573795 
Q -2.591845 1.983436 -2.910384 1.233808 
Q -3.214058 0.49055 -3.214058 -0.331281 
Q -3.214058 -1.174347 -2.910384 -1.917605 
Q -2.598216 -2.660862 -1.999363 -3.257592 
L -1.767891 -3.491187 
L -3.957316 -3.491187 
L -3.957316 -4.618815 
L -0.268635 -4.618815 
L 0.156084 -4.194096 
L 0.156084 -0.505415 
L -0.971544 -0.505415 
L -0.971544 -2.69484 
L -1.203016 -2.461244 
Q -1.642599 -2.023784 -1.8677 -1.486515 
Q -2.08643 -0.949246 -2.08643 -0.331281 
Q -2.08643 0.265449 -1.8677 0.802718 
Q -1.64897 1.339987 -1.21151 1.777447 
Q -0.786791 2.195795 -0.241028 2.429391 
Q 0.275005 2.648121 0.905712 2.648121 
Q 1.53642 2.648121 2.02697 2.429391 
Q 2.598216 2.170312 2.997452 1.777447 
Q 3.434912 1.339987 3.653642 0.802718 
Q 3.872372 0.265449 3.872372 -0.331281 
Q 3.872372 -0.949246 3.653642 -1.486515 
Q 3.441283 -2.023784 2.991081 -2.461244 
z
" style="stroke: #000000"/>
    </defs>
    <g clip-path="url(#p044d3d07d2)">
     <use xlink:href="#m32a6fbc06e" x="59.698667" y="190.298" style="stroke: #000000"/>
    </g>
   </g>
   <g id="line2d_2">
    <path d="M 113.533333 190.298 
" clip-path="url(#p044d3d07d2)" style="fill: none; stroke: #000000; stroke-width: 1.5; stroke-linecap: square"/>
    <g clip-path="url(#p044d3d07d2)">
     <use xlink:href="#m32a6fbc06e" x="113.533333" y="190.298" style="stroke: #000000"/>
    </g>
   </g>
   <g id="line2d_3">
    <path d="M 167.368 190.298 
" clip-path="url(#p044d3d07d2)" style="fill: none; stroke: #000000; stroke-width: 1.5; stroke-linecap: square"/>
    <g clip-path="url(#p044d3d07d2)">
     <use xlink:href="#m32a6fbc06e" x="167.368" y="190.298" style="stroke: #000000"/>
    </g>
   </g>
   <g id="line2d_4">
    <path d="M 221.202667 190.298 
" clip-path="url(#p044d3d07d2)" style="fill: none; stroke: #000000; stroke-width: 1.5; stroke-linecap: square"/>
    <g clip-path="url(#p044d3d07d2)">
     <use xlink:href="#m32a6fbc06e" x="221.202667" y="190.298" style="stroke: #000000"/>
    </g>
   </g>
   <g id="line2d_5">
    <path d="M 275.037333 190.298 
" clip-path="url(#p044d3d07d2)" style="fill: none; stroke: #000000; stroke-width: 1.5; stroke-linecap: square"/>
    <g clip-path="url(#p044d3d07d2)">
     <use xlink:href="#m32a6fbc06e" x="275.037333" y="190.298" style="stroke: #000000"/>
    </g>
   </g>
   <g id="text_1">
    <!-- m0 -->
    <g transform="translate(66.428 273.223429)scale(0.0694 -0.0694)">
     <defs>
      <path id="DejaVuSans-6d" d="M 3328 2828 
Q 3544 3216 3844 3400 
Q 4144 3584 4550 3584 
Q 5097 3584 5394 3201 
Q 5691 2819 5691 2113 
L 5691 0 
L 5113 0 
L 5113 2094 
Q 5113 2597 4934 2840 
Q 4756 3084 4391 3084 
Q 3944 3084 3684 2787 
Q 3425 2491 3425 1978 
L 3425 0 
L 2847 0 
L 2847 2094 
Q 2847 2600 2669 2842 
Q 2491 3084 2119 3084 
Q 1678 3084 1418 2786 
Q 1159 2488 1159 1978 
L 1159 0 
L 581 0 
L 581 3500 
L 1159 3500 
L 1159 2956 
Q 1356 3278 1631 3431 
Q 1906 3584 2284 3584 
Q 2666 3584 2933 3390 
Q 3200 3197 3328 2828 
z
" transform="scale(0.015625)"/>
      <path id="DejaVuSans-30" d="M 2034 4250 
Q 1547 4250 1301 3770 
Q 1056 3291 1056 2328 
Q 1056 1369 1301 889 
Q 1547 409 2034 409 
Q 2525 409 2770 889 
Q 3016 1369 3016 2328 
Q 3016 3291 2770 3770 
Q 2525 4250 2034 4250 
z
M 2034 4750 
Q 2819 4750 3233 4129 
Q 3647 3509 3647 2328 
Q 3647 1150 3233 529 
Q 2819 -91 2034 -91 
Q 1250 -91 836 529 
Q 422 1150 422 2328 
Q 422 3509 836 4129 
Q 1250 4750 2034 4750 
z
" transform="scale(0.015625)"/>
     </defs>
     <use xlink:href="#DejaVuSans-6d"/>
     <use xlink:href="#DejaVuSans-30" x="97.412109"/>
    </g>
   </g>
   <g id="text_2">
    <!-- i0 -->
    <g transform="translate(69.119733 186.252857)scale(0.0694 -0.0694)">
     <defs>
      <path id="DejaVuSans-69" d="M 603 3500 
L 1178 3500 
L 1178 0 
L 603 0 
L 603 3500 
z
M 603 4863 
L 1178 4863 
L 1178 4134 
L 603 4134 
L 603 4863 
z
" transform="scale(0.015625)"/>
     </defs>
     <use xlink:href="#DejaVuSans-69"/>
     <use xlink:href="#DejaVuSans-30" x="27.783203"/>
    </g>
   </g>
   <g id="text_3">
    <!-- m1 -->
    <g transform="translate(120.262667 273.223429)scale(0.0694 -0.0694)">
     <defs>
      <path id="DejaVuSans-31" d="M 794 531 
L 1825 531 
L 1825 4091 
L 703 3866 
L 703 4441 
L 1819 4666 
L 2450 4666 
L 2450 531 
L 3481 531 
L 3481 0 
L 794 0 
L 794 531 
z
" transform="scale(0.015625)"/>
     </defs>
     <use xlink:href="#DejaVuSans-6d"/>
     <use xlink:href="#DejaVuSans-31" x="97.412109"/>
    </g>
   </g>
   <g id="text_4">
    <!-- i1 -->
    <g transform="translate(122.9544 186.252857)scale(0.0694 -0.0694)">
     <use xlink:href="#DejaVuSans-69"/>
     <use xlink:href="#DejaVuSans-31" x="27.783203"/>
    </g>
   </g>
   <g id="text_5">
    <!-- d1 -->
    <g transform="translate(120.262667 100.293571)scale(0.0694 -0.0694)">
     <defs>
      <path id="DejaVuSans-64" d="M 2906 2969 
L 2906 4863 
L 3481 4863 
L 3481 0 
L 2906 0 
L 2906 525 
Q 2725 213 2448 61 
Q 2172 -91 1784 -91 
Q 1150 -91 751 415 
Q 353 922 353 1747 
Q 353 2572 751 3078 
Q 1150 3584 1784 3584 
Q 2172 3584 2448 3432 
Q 2725 3281 2906 2969 
z
M 947 1747 
Q 947 1113 1208 752 
Q 1469 391 1925 391 
Q 2381 391 2643 752 
Q 2906 1113 2906 1747 
Q 2906 2381 2643 2742 
Q 2381 3103 1925 3103 
Q 1469 3103 1208 2742 
Q 947 2381 947 1747 
z
" transform="scale(0.015625)"/>
     </defs>
     <use xlink:href="#DejaVuSans-64"/>
     <use xlink:href="#DejaVuSans-31" x="63.476562"/>
    </g>
   </g>
   <g id="text_6">
    <!-- m2 -->
    <g transform="translate(174.097333 273.223429)scale(0.0694 -0.0694)">
     <defs>
      <path id="DejaVuSans-32" d="M 1228 531 
L 3431 531 
L 3431 0 
L 469 0 
L 469 531 
Q 828 903 1448 1529 
Q 2069 2156 2228 2338 
Q 2531 2678 2651 2914 
Q 2772 3150 2772 3378 
Q 2772 3750 2511 3984 
Q 2250 4219 1831 4219 
Q 1534 4219 1204 4116 
Q 875 4013 500 3803 
L 500 4441 
Q 881 4594 1212 4672 
Q 1544 4750 1819 4750 
Q 2544 4750 2975 4387 
Q 3406 4025 3406 3419 
Q 3406 3131 3298 2873 
Q 3191 2616 2906 2266 
Q 2828 2175 2409 1742 
Q 1991 1309 1228 531 
z
" transform="scale(0.015625)"/>
     </defs>
     <use xlink:href="#DejaVuSans-6d"/>
     <use xlink:href="#DejaVuSans-32" x="97.412109"/>
    </g>
   </g>
   <g id="text_7">
    <!-- i2 -->
    <g transform="translate(176.789067 186.252857)scale(0.0694 -0.0694)">
     <use xlink:href="#DejaVuSans-69"/>
     <use xlink:href="#DejaVuSans-32" x="27.783203"/>
    </g>
   </g>
   <g id="text_8">
    <!-- d2 -->
    <g transform="translate(174.097333 100.293571)scale(0.0694 -0.0694)">
     <use xlink:href="#DejaVuSans-64"/>
     <use xlink:href="#DejaVuSans-32" x="63.476562"/>
    </g>
   </g>
   <g id="text_9">
    <!-- m3 -->
    <g transform="translate(227.932 273.223429)scale(0.0694 -0.0694)">
     <defs>
      <path id="DejaVuSans-33" d="M 2597 2516 
Q 3050 2419 3304 2112 
Q 3559 1806 3559 1356 
Q 3559 666 3084 287 
Q 2609 -91 1734 -91 
Q 1441 -91 1130 -33 
Q 819 25 488 141 
L 488 750 
Q 750 597 1062 519 
Q 1375 441 1716 441 
Q 2309 441 2620 675 
Q 2931 909 2931 1356 
Q 2931 1769 2642 2001 
Q 2353 2234 1838 2234 
L 1294 2234 
L 1294 2753 
L 1863 2753 
Q 2328 2753 2575 2939 
Q 2822 3125 2822 3475 
Q 2822 3834 2567 4026 
Q 2313 4219 1838 4219 
Q 1578 4219 1281 4162 
Q 984 4106 628 3988 
L 628 4550 
Q 988 4650 1302 4700 
Q 1616 4750 1894 4750 
Q 2613 4750 3031 4423 
Q 3450 4097 3450 3541 
Q 3450 3153 3228 2886 
Q 3006 2619 2597 2516 
z
" transform="scale(0.015625)"/>
     </defs>
     <use xlink:href="#DejaVuSans-6d"/>
     <use xlink:href="#DejaVuSans-33" x="97.412109"/>
    </g>
   </g>
   <g id="text_10">
    <!-- i3 -->
    <g transform="translate(230.623733 186.252857)scale(0.0694 -0.0694)">
     <use xlink:href="#DejaVuSans-69"/>
     <use xlink:href="#DejaVuSans-33" x="27.783203"/>
    </g>
   </g>
   <g id="text_11">
    <!-- d3 -->
    <g transform="translate(227.932 100.293571)scale(0.0694 -0.0694)">
     <use xlink:href="#DejaVuSans-64"/>
     <use xlink:href="#DejaVuSans-33" x="63.476562"/>
    </g>
   </g>
   <g id="text_12">
    <!-- m4 -->
    <g transform="translate(281.766667 273.223429)scale(0.0694 -0.0694)">
     <defs>
      <path id="DejaVuSans-34" d="M 2419 4116 
L 825 1625 
L 2419 1625 
L 2419 4116 
z
M 2253 4666 
L 3047 4666 
L 3047 1625 
L 3713 1625 
L 3713 1100 
L 3047 1100 
L 3047 0 
L 2419 0 
L 2419 1100 
L 313 1100 
L 313 1709 
L 2253 4666 
z
" transform="scale(0.015625)"/>
     </defs>
     <use xlink:href="#DejaVuSans-6d"/>
     <use xlink:href="#DejaVuSans-34" x="97.412109"/>
    </g>
   </g>
   <g id="text_13">
    <!-- i4 -->
    <g transform="translate(284.4584 186.252857)scale(0.0694 -0.0694)">
     <use xlink:href="#DejaVuSans-69"/>
     <use xlink:href="#DejaVuSans-34" x="27.783203"/>
    </g>
   </g>
   <g id="text_14">
    <!-- d4 -->
    <g transform="translate(281.766667 100.293571)scale(0.0694 -0.0694)">
     <use xlink:href="#DejaVuSans-64"/>
     <use xlink:href="#DejaVuSans-34" x="63.476562"/>
    </g>
   </g>
   <g id="text_15">
    <!-- END -->
    <g transform="translate(335.601333 273.223429)scale(0.0694 -0.0694)">
     <defs>
      <path id="DejaVuSans-45" d="M 628 4666 
L 3578 4666 
L 3578 4134 
L 1259 4134 
L 1259 2753 
L 3481 2753 
L 3481 2222 
L 1259 2222 
L 1259 531 
L 3634 531 
L 3634 0 
L 628 0 
L 628 4666 
z
" transform="scale(0.015625)"/>
      <path id="DejaVuSans-4e" d="M 628 4666 
L 1478 4666 
L 3547 763 
L 3547 4666 
L 4159 4666 
L 4159 0 
L 3309 0 
L 1241 3903 
L 1241 0 
L 628 0 
L 628 4666 
z
" transform="scale(0.015625)"/>
      <path id="DejaVuSans-44" d="M 1259 4147 
L 1259 519 
L 2022 519 
Q 2988 519 3436 956 
Q 3884 1394 3884 2338 
Q 3884 3275 3436 3711 
Q 2988 4147 2022 4147 
L 1259 4147 
z
M 628 4666 
L 1925 4666 
Q 3281 4666 3915 4102 
Q 4550 3538 4550 2338 
Q 4550 1131 3912 565 
Q 3275 0 1925 0 
L 628 0 
L 628 4666 
z
" transform="scale(0.015625)"/>
     </defs>
     <use xlink:href="#DejaVuSans-45"/>
     <use xlink:href="#DejaVuSans-4e" x="63.183594"/>
     <use xlink:href="#DejaVuSans-44" x="137.988281"/>
    </g>
   </g>
  </g>
  <g id="text_16">
   <!-- Profile HMM representing MSA -->
   <g transform="translate(139.850625 16.030125)scale(0.12 -0.12)">
    <defs>
     <path id="DejaVuSans-50" d="M 1259 4147 
L 1259 2394 
L 2053 2394 
Q 2494 2394 2734 2622 
Q 2975 2850 2975 3272 
Q 2975 3691 2734 3919 
Q 2494 4147 2053 4147 
L 1259 4147 
z
M 628 4666 
L 2053 4666 
Q 2838 4666 3239 4311 
Q 3641 3956 3641 3272 
Q 3641 2581 3239 2228 
Q 2838 1875 2053 1875 
L 1259 1875 
L 1259 0 
L 628 0 
L 628 4666 
z
" transform="scale(0.015625)"/>
     <path id="DejaVuSans-72" d="M 2631 2963 
Q 2534 3019 2420 3045 
Q 2306 3072 2169 3072 
Q 1681 3072 1420 2755 
Q 1159 2438 1159 1844 
L 1159 0 
L 581 0 
L 581 3500 
L 1159 3500 
L 1159 2956 
Q 1341 3275 1631 3429 
Q 1922 3584 2338 3584 
Q 2397 3584 2469 3576 
Q 2541 3569 2628 3553 
L 2631 2963 
z
" transform="scale(0.015625)"/>
     <path id="DejaVuSans-6f" d="M 1959 3097 
Q 1497 3097 1228 2736 
Q 959 2375 959 1747 
Q 959 1119 1226 758 
Q 1494 397 1959 397 
Q 2419 397 2687 759 
Q 2956 1122 2956 1747 
Q 2956 2369 2687 2733 
Q 2419 3097 1959 3097 
z
M 1959 3584 
Q 2709 3584 3137 3096 
Q 3566 2609 3566 1747 
Q 3566 888 3137 398 
Q 2709 -91 1959 -91 
Q 1206 -91 779 398 
Q 353 888 353 1747 
Q 353 2609 779 3096 
Q 1206 3584 1959 3584 
z
" transform="scale(0.015625)"/>
     <path id="DejaVuSans-66" d="M 2375 4863 
L 2375 4384 
L 1825 4384 
Q 1516 4384 1395 4259 
Q 1275 4134 1275 3809 
L 1275 3500 
L 2222 3500 
L 2222 3053 
L 1275 3053 
L 1275 0 
L 697 0 
L 697 3053 
L 147 3053 
L 147 3500 
L 697 3500 
L 697 3744 
Q 697 4328 969 4595 
Q 1241 4863 1831 4863 
L 2375 4863 
z
" transform="scale(0.015625)"/>
     <path id="DejaVuSans-6c" d="M 603 4863 
L 1178 4863 
L 1178 0 
L 603 0 
L 603 4863 
z
" transform="scale(0.015625)"/>
     <path id="DejaVuSans-65" d="M 3597 1894 
L 3597 1613 
L 953 1613 
Q 991 1019 1311 708 
Q 1631 397 2203 397 
Q 2534 397 2845 478 
Q 3156 559 3463 722 
L 3463 178 
Q 3153 47 2828 -22 
Q 2503 -91 2169 -91 
Q 1331 -91 842 396 
Q 353 884 353 1716 
Q 353 2575 817 3079 
Q 1281 3584 2069 3584 
Q 2775 3584 3186 3129 
Q 3597 2675 3597 1894 
z
M 3022 2063 
Q 3016 2534 2758 2815 
Q 2500 3097 2075 3097 
Q 1594 3097 1305 2825 
Q 1016 2553 972 2059 
L 3022 2063 
z
" transform="scale(0.015625)"/>
     <path id="DejaVuSans-20" transform="scale(0.015625)"/>
     <path id="DejaVuSans-48" d="M 628 4666 
L 1259 4666 
L 1259 2753 
L 3553 2753 
L 3553 4666 
L 4184 4666 
L 4184 0 
L 3553 0 
L 3553 2222 
L 1259 2222 
L 1259 0 
L 628 0 
L 628 4666 
z
" transform="scale(0.015625)"/>
     <path id="DejaVuSans-4d" d="M 628 4666 
L 1569 4666 
L 2759 1491 
L 3956 4666 
L 4897 4666 
L 4897 0 
L 4281 0 
L 4281 4097 
L 3078 897 
L 2444 897 
L 1241 4097 
L 1241 0 
L 628 0 
L 628 4666 
z
" transform="scale(0.015625)"/>
     <path id="DejaVuSans-70" d="M 1159 525 
L 1159 -1331 
L 581 -1331 
L 581 3500 
L 1159 3500 
L 1159 2969 
Q 1341 3281 1617 3432 
Q 1894 3584 2278 3584 
Q 2916 3584 3314 3078 
Q 3713 2572 3713 1747 
Q 3713 922 3314 415 
Q 2916 -91 2278 -91 
Q 1894 -91 1617 61 
Q 1341 213 1159 525 
z
M 3116 1747 
Q 3116 2381 2855 2742 
Q 2594 3103 2138 3103 
Q 1681 3103 1420 2742 
Q 1159 2381 1159 1747 
Q 1159 1113 1420 752 
Q 1681 391 2138 391 
Q 2594 391 2855 752 
Q 3116 1113 3116 1747 
z
" transform="scale(0.015625)"/>
     <path id="DejaVuSans-73" d="M 2834 3397 
L 2834 2853 
Q 2591 2978 2328 3040 
Q 2066 3103 1784 3103 
Q 1356 3103 1142 2972 
Q 928 2841 928 2578 
Q 928 2378 1081 2264 
Q 1234 2150 1697 2047 
L 1894 2003 
Q 2506 1872 2764 1633 
Q 3022 1394 3022 966 
Q 3022 478 2636 193 
Q 2250 -91 1575 -91 
Q 1294 -91 989 -36 
Q 684 19 347 128 
L 347 722 
Q 666 556 975 473 
Q 1284 391 1588 391 
Q 1994 391 2212 530 
Q 2431 669 2431 922 
Q 2431 1156 2273 1281 
Q 2116 1406 1581 1522 
L 1381 1569 
Q 847 1681 609 1914 
Q 372 2147 372 2553 
Q 372 3047 722 3315 
Q 1072 3584 1716 3584 
Q 2034 3584 2315 3537 
Q 2597 3491 2834 3397 
z
" transform="scale(0.015625)"/>
     <path id="DejaVuSans-6e" d="M 3513 2113 
L 3513 0 
L 2938 0 
L 2938 2094 
Q 2938 2591 2744 2837 
Q 2550 3084 2163 3084 
Q 1697 3084 1428 2787 
Q 1159 2491 1159 1978 
L 1159 0 
L 581 0 
L 581 3500 
L 1159 3500 
L 1159 2956 
Q 1366 3272 1645 3428 
Q 1925 3584 2291 3584 
Q 2894 3584 3203 3211 
Q 3513 2838 3513 2113 
z
" transform="scale(0.015625)"/>
     <path id="DejaVuSans-74" d="M 1172 4494 
L 1172 3500 
L 2356 3500 
L 2356 3053 
L 1172 3053 
L 1172 1153 
Q 1172 725 1289 603 
Q 1406 481 1766 481 
L 2356 481 
L 2356 0 
L 1766 0 
Q 1100 0 847 248 
Q 594 497 594 1153 
L 594 3053 
L 172 3053 
L 172 3500 
L 594 3500 
L 594 4494 
L 1172 4494 
z
" transform="scale(0.015625)"/>
     <path id="DejaVuSans-67" d="M 2906 1791 
Q 2906 2416 2648 2759 
Q 2391 3103 1925 3103 
Q 1463 3103 1205 2759 
Q 947 2416 947 1791 
Q 947 1169 1205 825 
Q 1463 481 1925 481 
Q 2391 481 2648 825 
Q 2906 1169 2906 1791 
z
M 3481 434 
Q 3481 -459 3084 -895 
Q 2688 -1331 1869 -1331 
Q 1566 -1331 1297 -1286 
Q 1028 -1241 775 -1147 
L 775 -588 
Q 1028 -725 1275 -790 
Q 1522 -856 1778 -856 
Q 2344 -856 2625 -561 
Q 2906 -266 2906 331 
L 2906 616 
Q 2728 306 2450 153 
Q 2172 0 1784 0 
Q 1141 0 747 490 
Q 353 981 353 1791 
Q 353 2603 747 3093 
Q 1141 3584 1784 3584 
Q 2172 3584 2450 3431 
Q 2728 3278 2906 2969 
L 2906 3500 
L 3481 3500 
L 3481 434 
z
" transform="scale(0.015625)"/>
     <path id="DejaVuSans-53" d="M 3425 4513 
L 3425 3897 
Q 3066 4069 2747 4153 
Q 2428 4238 2131 4238 
Q 1616 4238 1336 4038 
Q 1056 3838 1056 3469 
Q 1056 3159 1242 3001 
Q 1428 2844 1947 2747 
L 2328 2669 
Q 3034 2534 3370 2195 
Q 3706 1856 3706 1288 
Q 3706 609 3251 259 
Q 2797 -91 1919 -91 
Q 1588 -91 1214 -16 
Q 841 59 441 206 
L 441 856 
Q 825 641 1194 531 
Q 1563 422 1919 422 
Q 2459 422 2753 634 
Q 3047 847 3047 1241 
Q 3047 1584 2836 1778 
Q 2625 1972 2144 2069 
L 1759 2144 
Q 1053 2284 737 2584 
Q 422 2884 422 3419 
Q 422 4038 858 4394 
Q 1294 4750 2059 4750 
Q 2388 4750 2728 4690 
Q 3069 4631 3425 4513 
z
" transform="scale(0.015625)"/>
     <path id="DejaVuSans-41" d="M 2188 4044 
L 1331 1722 
L 3047 1722 
L 2188 4044 
z
M 1831 4666 
L 2547 4666 
L 4325 0 
L 3669 0 
L 3244 1197 
L 1141 1197 
L 716 0 
L 50 0 
L 1831 4666 
z
" transform="scale(0.015625)"/>
    </defs>
    <use xlink:href="#DejaVuSans-50"/>
    <use xlink:href="#DejaVuSans-72" x="58.552734"/>
    <use xlink:href="#DejaVuSans-6f" x="97.416016"/>
    <use xlink:href="#DejaVuSans-66" x="158.597656"/>
    <use xlink:href="#DejaVuSans-69" x="193.802734"/>
    <use xlink:href="#DejaVuSans-6c" x="221.585938"/>
    <use xlink:href="#DejaVuSans-65" x="249.369141"/>
    <use xlink:href="#DejaVuSans-20" x="310.892578"/>
    <use xlink:href="#DejaVuSans-48" x="342.679688"/>
    <use xlink:href="#DejaVuSans-4d" x="417.875"/>
    <use xlink:href="#DejaVuSans-4d" x="504.154297"/>
    <use xlink:href="#DejaVuSans-20" x="590.433594"/>
    <use xlink:href="#DejaVuSans-72" x="622.220703"/>
    <use xlink:href="#DejaVuSans-65" x="661.083984"/>
    <use xlink:href="#DejaVuSans-70" x="722.607422"/>
    <use xlink:href="#DejaVuSans-72" x="786.083984"/>
    <use xlink:href="#DejaVuSans-65" x="824.947266"/>
    <use xlink:href="#DejaVuSans-73" x="886.470703"/>
    <use xlink:href="#DejaVuSans-65" x="938.570312"/>
    <use xlink:href="#DejaVuSans-6e" x="1000.09375"/>
    <use xlink:href="#DejaVuSans-74" x="1063.472656"/>
    <use xlink:href="#DejaVuSans-69" x="1102.681641"/>
    <use xlink:href="#DejaVuSans-6e" x="1130.464844"/>
    <use xlink:href="#DejaVuSans-67" x="1193.84375"/>
    <use xlink:href="#DejaVuSans-20" x="1257.320312"/>
    <use xlink:href="#DejaVuSans-4d" x="1289.107422"/>
    <use xlink:href="#DejaVuSans-53" x="1375.386719"/>
    <use xlink:href="#DejaVuSans-41" x="1440.738281"/>
   </g>
  </g>
 </g>
 <defs>
  <clipPath id="p044d3d07d2">
   <rect x="46.24" y="34.56" width="403.76" height="283.16"/>
  </clipPath>
 </defs>
</svg>
